<svg width="24" height="24" viewBox="0 0 24 24" fill="none" xmlns="http://www.w3.org/2000/svg">
<circle cx="12" cy="12" r="12" fill="none"/>
<g clip-path="url(#clip0_988:19)">
<path d="M15.231 6.07914V7.82448H14.0985C14.059 7.81943 14.013 7.81668 13.9665 7.81668C13.6955 7.81668 13.4485 7.90973 13.261 8.06327L13.262 8.06235C13.1245 8.23835 13.0425 8.45789 13.0425 8.69531C13.0425 8.72373 13.0435 8.75214 13.046 8.7801V8.77643V10.0259H15.1605L14.8805 11.9829H13.049V16.9998H10.8405V11.9825H9.0005V10.0259H10.8405V8.58439C10.837 8.53764 10.835 8.48264 10.835 8.42764C10.835 7.75023 11.1225 7.13423 11.5915 6.67681L11.59 6.67818C12.076 6.25652 12.734 5.99756 13.4575 5.99756C13.5025 5.99756 13.5475 5.99848 13.5925 6.00077H13.586C13.645 5.99985 13.714 5.99939 13.7835 5.99939C14.2935 5.99939 14.796 6.02873 15.289 6.08556L15.2305 6.08006L15.231 6.07914Z" fill="white"/>
</g>
<defs>
<clipPath id="clip0_988:19">
<rect width="6" height="11" fill="white" transform="translate(9 6)"/>
</clipPath>
</defs>
</svg>
