<svg width="44" height="55" viewBox="0 0 44 55" fill="none" xmlns="http://www.w3.org/2000/svg">
    <g clip-path="url(#clip0)">
        <path d="M17.7904 11.8372C18.0417 11.7331 18.2564 11.5569 18.4075 11.3308C18.5586 11.1046 18.6392 10.8388 18.6392 10.5668C18.6392 10.2948 18.5585 10.029 18.4074 9.80289C18.2563 9.57677 18.0415 9.40055 17.7902 9.2965C17.539 9.19246 17.2625 9.16526 16.9958 9.21835C16.729 9.27144 16.484 9.40244 16.2918 9.59478C16.0995 9.78711 15.9686 10.0321 15.9156 10.2989C15.8626 10.5656 15.8898 10.8421 15.994 11.0933C16.1336 11.4302 16.4013 11.6978 16.7382 11.8373C17.075 11.9768 17.4535 11.9768 17.7904 11.8372Z" fill="#4C4C4C" />
        <path d="M11.8373 17.7904C11.9414 17.5391 11.9687 17.2627 11.9157 16.9959C11.8627 16.7292 11.7318 16.4841 11.5395 16.2918C11.3472 16.0995 11.1023 15.9685 10.8355 15.9154C10.5688 15.8623 10.2923 15.8895 10.041 15.9935C9.78978 16.0976 9.57501 16.2738 9.42389 16.4999C9.27278 16.726 9.19211 16.9919 9.1921 17.2638C9.19208 17.5358 9.27271 17.8016 9.42379 18.0278C9.57488 18.2539 9.78963 18.4302 10.0409 18.5342C10.3778 18.6738 10.7563 18.6738 11.0931 18.5343C11.43 18.3948 11.6977 18.1272 11.8373 17.7904Z" fill="#4C4C4C" />
        <path d="M11.0935 28.0062C11.3447 27.902 11.5593 27.7257 11.7103 27.4995C11.8613 27.2734 11.9418 27.0075 11.9417 26.7356C11.9416 26.4637 11.8609 26.1979 11.7098 25.9718C11.5586 25.7458 11.3439 25.5696 11.0926 25.4656C10.8414 25.3616 10.5649 25.3345 10.2982 25.3876C10.0315 25.4407 9.78658 25.5716 9.59433 25.7639C9.40208 25.9562 9.27116 26.2012 9.21813 26.4679C9.1651 26.7346 9.19234 27.0111 9.2964 27.2623C9.36552 27.4292 9.46685 27.5808 9.59458 27.7085C9.72232 27.8362 9.87396 27.9375 10.0409 28.0065C10.2077 28.0756 10.3866 28.1111 10.5672 28.1111C10.7478 28.111 10.9267 28.0754 11.0935 28.0062Z" fill="#4C4C4C" />
        <path d="M15.994 32.9067C15.8898 33.1579 15.8626 33.4344 15.9156 33.7011C15.9686 33.9679 16.0995 34.2129 16.2918 34.4052C16.484 34.5976 16.729 34.7286 16.9958 34.7816C17.2625 34.8347 17.539 34.8075 17.7902 34.7035C18.0415 34.5995 18.2563 34.4232 18.4074 34.1971C18.5585 33.971 18.6392 33.7052 18.6392 33.4332C18.6392 33.1612 18.5586 32.8954 18.4075 32.6692C18.2564 32.4431 18.0417 32.2669 17.7904 32.1628C17.4535 32.0232 17.075 32.0232 16.7382 32.1627C16.4013 32.3022 16.1336 32.5698 15.994 32.9067Z" fill="#4C4C4C" />
        <path d="M27.2621 34.7038C27.5133 34.5995 27.728 34.423 27.8789 34.1967C28.0298 33.9704 28.1102 33.7044 28.1099 33.4323C28.1096 33.1603 28.0286 32.8945 27.8772 32.6685C27.7258 32.4425 27.5108 32.2665 27.2593 32.1628C27.0078 32.059 26.7312 32.0322 26.4645 32.0857C26.1978 32.1392 25.953 32.2706 25.7609 32.4633C25.5689 32.6559 25.4384 32.9012 25.3858 33.1681C25.3333 33.435 25.361 33.7115 25.4657 33.9626C25.6058 34.299 25.8737 34.566 26.2105 34.7049C26.5474 34.8439 26.9256 34.8435 27.2621 34.7038Z" fill="#4C4C4C" />
        <path d="M32.1626 26.2096C32.0588 26.4608 32.0318 26.7371 32.0849 27.0036C32.138 27.2701 32.2689 27.5149 32.4611 27.7071C32.6532 27.8993 32.898 28.0302 33.1646 28.0833C33.4311 28.1365 33.7074 28.1094 33.9585 28.0056C34.2097 27.9018 34.4245 27.7259 34.5757 27.5001C34.727 27.2743 34.8079 27.0088 34.8084 26.737C34.8088 26.4652 34.7287 26.1994 34.5781 25.9732C34.4276 25.7469 34.2133 25.5703 33.9625 25.4658C33.7955 25.3961 33.6164 25.3601 33.4355 25.3599C33.2546 25.3596 33.0754 25.395 32.9082 25.4641C32.741 25.5332 32.589 25.6346 32.4611 25.7626C32.3332 25.8905 32.2317 26.0424 32.1626 26.2096Z" fill="#4C4C4C" />
        <path d="M32.9065 15.9938C32.6553 16.098 32.4407 16.2743 32.2897 16.5005C32.1387 16.7266 32.0582 16.9925 32.0583 17.2644C32.0584 17.5363 32.1391 17.8021 32.2902 18.0282C32.4414 18.2542 32.6561 18.4304 32.9074 18.5344C33.1586 18.6384 33.4351 18.6655 33.7018 18.6124C33.9685 18.5593 34.2134 18.4284 34.4057 18.2361C34.5979 18.0438 34.7288 17.7988 34.7819 17.5321C34.8349 17.2654 34.8077 16.9889 34.7036 16.7377C34.6345 16.5708 34.5331 16.4192 34.4054 16.2915C34.2777 16.1638 34.126 16.0625 33.9591 15.9935C33.7923 15.9244 33.6134 15.8889 33.4328 15.8889C33.2521 15.889 33.0733 15.9246 32.9065 15.9938Z" fill="#4C4C4C" />
        <path d="M26.2096 11.8374C26.4608 11.9415 26.7373 11.9688 27.0041 11.9158C27.2708 11.8628 27.5158 11.7318 27.7082 11.5396C27.9005 11.3473 28.0315 11.1023 28.0846 10.8356C28.1377 10.5688 28.1105 10.2924 28.0064 10.0411C27.9024 9.78982 27.7262 9.57505 27.5001 9.42393C27.2739 9.27282 27.0081 9.19216 26.7361 9.19214C26.4642 9.19212 26.1983 9.27275 25.9722 9.42384C25.7461 9.57492 25.5698 9.78967 25.4657 10.0409C25.3262 10.3778 25.3262 10.7563 25.4657 11.0932C25.6052 11.4301 25.8728 11.6978 26.2096 11.8374Z" fill="#4C4C4C" />
        <path d="M20.099 21.8945C20.3503 21.9986 20.6267 22.0259 20.8935 21.9729C21.1602 21.9199 21.4052 21.789 21.5976 21.5967C21.7899 21.4044 21.9209 21.1594 21.974 20.8927C22.0271 20.626 21.9999 20.3495 21.8959 20.0982C21.7918 19.8469 21.6156 19.6322 21.3895 19.4811C21.1634 19.33 20.8975 19.2493 20.6256 19.2493C20.3536 19.2493 20.0877 19.3299 19.8616 19.481C19.6355 19.6321 19.4592 19.8468 19.3551 20.0981C19.2156 20.4349 19.2156 20.8134 19.3551 21.1503C19.4946 21.4872 19.7622 21.7549 20.099 21.8945Z" fill="#4C4C4C" />
        <path d="M22.8484 24.6445C23.0997 24.7486 23.3761 24.7759 23.6429 24.7229C23.9096 24.6699 24.1546 24.539 24.347 24.3467C24.5393 24.1544 24.6703 23.9094 24.7234 23.6427C24.7765 23.376 24.7493 23.0995 24.6453 22.8482C24.5412 22.597 24.365 22.3822 24.1389 22.2311C23.9128 22.08 23.6469 21.9993 23.375 21.9993C23.103 21.9993 22.8371 22.0799 22.611 22.231C22.3849 22.3821 22.2086 22.5968 22.1045 22.8481C21.965 23.1849 21.965 23.5634 22.1045 23.9003C22.244 24.2372 22.5116 24.5049 22.8484 24.6445Z" fill="#4C4C4C" />
        <path d="M3.81149 23.34C4.01202 23.3867 4.22051 23.3876 4.42144 23.3426C4.62237 23.2976 4.81056 23.2079 4.97199 23.0801C5.32301 22.8169 5.72373 22.6276 6.14994 22.5236C6.57616 22.4196 7.01903 22.4031 7.45181 22.4751L11.0502 22.9893C11.2473 25.2166 12.1218 27.3301 13.5561 29.0455L11.5225 31.7563C10.9669 32.5562 10.1179 33.1042 9.16024 33.2812C8.86769 33.3225 8.59662 33.4582 8.38818 33.6676C8.23327 33.8225 8.11764 34.0123 8.05091 34.221C7.98419 34.4297 7.96832 34.6513 8.00461 34.8674C8.04091 35.0835 8.12832 35.2878 8.25956 35.4633C8.3908 35.6387 8.56208 35.7803 8.75912 35.8761C8.95616 35.972 9.17325 36.0194 9.39231 36.0143C9.61137 36.0093 9.82605 35.9519 10.0185 35.8471C10.2109 35.7423 10.3754 35.593 10.4985 35.4117C10.6215 35.2303 10.6994 35.0222 10.7257 34.8047C10.7876 34.3704 10.937 33.9531 11.1648 33.5781C11.3927 33.2032 11.6942 32.8783 12.0512 32.6233L14.9566 30.4439C16.6719 31.8782 18.7854 32.7527 21.0127 32.9498L21.494 36.3076C21.667 37.2665 21.454 38.255 20.9014 39.0576C20.723 39.2929 20.626 39.5798 20.625 39.875C20.6244 40.0944 20.6763 40.3108 20.7763 40.5061C20.8764 40.7014 21.0218 40.8698 21.2003 40.9975C21.3787 41.1251 21.5852 41.2081 21.8023 41.2397C22.0195 41.2712 22.241 41.2503 22.4484 41.1788C22.6558 41.1072 22.8431 40.987 22.9946 40.8283C23.1461 40.6696 23.2574 40.4769 23.3193 40.2664C23.3811 40.0559 23.3916 39.8336 23.35 39.6182C23.3084 39.4027 23.2158 39.2004 23.0801 39.028C22.8169 38.677 22.6276 38.2763 22.5236 37.8501C22.4196 37.4239 22.4031 36.981 22.4751 36.5482L22.9893 32.9498C25.2166 32.7527 27.3301 31.8782 29.0455 30.4439L31.7563 32.4775C32.5562 33.0331 33.1042 33.8821 33.2812 34.8398C33.3225 35.1323 33.4582 35.4034 33.6676 35.6118C33.8225 35.7667 34.0123 35.8824 34.221 35.9491C34.4297 36.0158 34.6513 36.0317 34.8674 35.9954C35.0835 35.9591 35.2878 35.8717 35.4632 35.7405C35.6387 35.6092 35.7803 35.4379 35.8761 35.2409C35.972 35.0439 36.0193 34.8268 36.0143 34.6077C36.0092 34.3886 35.9519 34.174 35.8471 33.9816C35.7423 33.7891 35.593 33.6246 35.4116 33.5016C35.2303 33.3785 35.0222 33.3006 34.8047 33.2743C34.3703 33.2124 33.953 33.063 33.5781 32.8352C33.2031 32.6074 32.8783 32.3058 32.6232 31.9488L30.4439 29.0435C31.8782 27.3281 32.7527 25.2146 32.9498 22.9873L36.3076 22.506C37.2665 22.333 38.255 22.5461 39.0576 23.0986C39.2928 23.277 39.5797 23.374 39.875 23.375C40.0944 23.3756 40.3108 23.3238 40.5061 23.2237C40.7013 23.1236 40.8698 22.9782 40.9974 22.7998C41.125 22.6213 41.2081 22.4148 41.2396 22.1977C41.2712 21.9805 41.2503 21.759 41.1787 21.5516C41.1072 21.3442 40.987 21.1569 40.8283 21.0054C40.6696 20.8539 40.4769 20.7426 40.2664 20.6807C40.0558 20.6189 39.8336 20.6084 39.6181 20.65C39.4027 20.6916 39.2003 20.7842 39.028 20.92C38.677 21.1831 38.2763 21.3724 37.85 21.4764C37.4238 21.5804 36.981 21.5969 36.5482 21.525L32.9498 21.0107C32.7527 18.7834 31.8782 16.6699 30.4439 14.9545L32.4775 12.2437C33.0331 11.4438 33.8821 10.8958 34.8397 10.7188C35.1323 10.6775 35.4034 10.5419 35.6118 10.3325C35.7667 10.1775 35.8824 9.98775 35.9491 9.77904C36.0158 9.57033 36.0317 9.34869 35.9954 9.13261C35.9591 8.91652 35.8717 8.71223 35.7404 8.53677C35.6092 8.36131 35.4379 8.21975 35.2409 8.1239C35.0438 8.02804 34.8267 7.98067 34.6077 7.98572C34.3886 7.99077 34.1739 8.0481 33.9815 8.15293C33.7891 8.25776 33.6245 8.40706 33.5015 8.58838C33.3785 8.7697 33.3006 8.9778 33.2743 9.19533C33.2124 9.62969 33.063 10.047 32.8352 10.4219C32.6073 10.7969 32.3058 11.1217 31.9488 11.3768L29.0434 13.5561C27.328 12.1219 25.2145 11.2473 22.9872 11.0502L22.506 7.69246C22.333 6.73351 22.546 5.74505 23.0986 4.94246C23.277 4.70719 23.374 4.42027 23.375 4.12502C23.3756 3.9056 23.3237 3.68922 23.2236 3.49395C23.1236 3.29869 22.9782 3.1302 22.7997 3.00259C22.6212 2.87497 22.4148 2.79192 22.1977 2.76038C21.9805 2.72883 21.759 2.74971 21.5516 2.82128C21.3441 2.89284 21.1569 3.013 21.0054 3.17172C20.8539 3.33044 20.7425 3.52312 20.6807 3.73365C20.6189 3.94418 20.6083 4.16644 20.65 4.38188C20.6916 4.59732 20.7841 4.79967 20.9199 4.97202C21.1831 5.32304 21.3724 5.72376 21.4764 6.14997C21.5804 6.57619 21.5969 7.01906 21.5249 7.45183L21.0107 11.0502C18.7834 11.2473 16.6699 12.1219 14.9545 13.5561L12.2437 11.5225C11.4438 10.967 10.8958 10.1179 10.7188 9.16027C10.6775 8.86772 10.5418 8.59664 10.3324 8.38821C10.1775 8.2333 9.98772 8.11766 9.77901 8.05094C9.5703 7.98422 9.34867 7.96835 9.13258 8.00464C8.91649 8.04093 8.7122 8.12834 8.53674 8.25959C8.36128 8.39083 8.21972 8.56211 8.12387 8.75915C8.02802 8.95619 7.98064 9.17328 7.98569 9.39234C7.99074 9.61139 8.04807 9.82607 8.1529 10.0185C8.25773 10.2109 8.40703 10.3755 8.58835 10.4985C8.76968 10.6215 8.97777 10.6994 9.19531 10.7257C9.62966 10.7876 10.0469 10.937 10.4219 11.1649C10.7968 11.3927 11.1217 11.6942 11.3767 12.0512L13.5561 14.9566C12.1218 16.672 11.2473 18.7855 11.0502 21.0128L7.69243 21.494C6.73348 21.667 5.74503 21.454 4.94243 20.9014C4.70716 20.723 4.42024 20.626 4.12499 20.625C3.78677 20.6238 3.45996 20.7473 3.20705 20.9718C2.95413 21.1964 2.79286 21.5063 2.75406 21.8423C2.71527 22.1783 2.80167 22.5168 2.99674 22.7931C3.19182 23.0694 3.48189 23.2641 3.81149 23.34ZM22 16.5C23.0878 16.5 24.1512 16.8226 25.0556 17.4269C25.9601 18.0313 26.665 18.8903 27.0813 19.8953C27.4976 20.9003 27.6065 22.0061 27.3943 23.073C27.1821 24.1399 26.6583 25.1199 25.8891 25.8891C25.1199 26.6583 24.1399 27.1821 23.073 27.3943C22.0061 27.6066 20.9002 27.4976 19.8952 27.0814C18.8902 26.6651 18.0313 25.9601 17.4269 25.0557C16.8226 24.1512 16.5 23.0878 16.5 22C16.5 20.5413 17.0795 19.1424 18.1109 18.1109C19.1424 17.0795 20.5413 16.5 22 16.5Z" fill="#4C4C4C" />
    </g>
    <defs>
        <clipPath id="clip0">
            <rect width="44" height="55" fill="#4C4C4C" />
        </clipPath>
    </defs>
</svg>
    