<svg width="57" height="72" viewBox="0 0 57 72" fill="none" xmlns="http://www.w3.org/2000/svg">
<path d="M50.7316 50.6879H49.4987V22.4391C49.4987 22.1212 49.2434 21.8631 48.9287 21.8631H41.2292V14.6879C41.2292 14.4978 41.1362 14.3198 40.9806 14.2127L28.8989 5.8607C28.7068 5.72706 28.4526 5.72706 28.2577 5.85897L16.0243 14.211C15.8676 14.3181 15.7735 14.4972 15.7735 14.6885V21.8637H8.0751C7.76046 21.8637 7.5051 22.1217 7.5051 22.4397V50.6879H6.27219C5.95755 50.6879 5.70219 50.9459 5.70219 51.2639C5.70219 51.5818 5.95755 51.8399 6.27219 51.8399H50.7322C51.0468 51.8399 51.3022 51.5818 51.3022 51.2639C51.3022 50.9459 51.0468 50.6879 50.7316 50.6879ZM29.1206 41.0877H32.3411V50.6879H29.1206V41.0877ZM27.9806 50.6879H24.6621V41.0877H27.9806V50.6879ZM32.9111 39.9357H24.0921C23.7775 39.9357 23.5221 40.1938 23.5221 40.5117V50.6879H20.3774V37.5361H36.6224V50.6879H33.4811V40.5117C33.4811 40.1938 33.2264 39.9357 32.9111 39.9357ZM8.6451 27.4561H13.4428V36.3841H8.6451V27.4561ZM14.5822 27.4561H19.2374V36.3841H14.5822V27.4561ZM20.3774 27.4561H25.0326V36.3841H20.3774V27.4561ZM48.3587 36.3841H43.5576V27.4561H48.3587V36.3841ZM42.4176 36.3841H37.7624V27.4561H42.4176V36.3841ZM36.6224 36.3841H31.9672V27.4561H36.6224V36.3841ZM30.8272 36.3841H26.172V27.4561H30.8272V36.3841ZM37.7624 37.5361H48.3587V50.6879H37.7624V37.5361ZM16.3441 23.0151C16.6587 23.0151 16.9141 22.7571 16.9141 22.4391V14.9938L28.5752 7.03228L40.0886 14.9914V22.4386C40.0886 22.7565 40.3439 23.0146 40.6586 23.0146H48.3587V26.3035H8.6451V23.0146H16.3441V23.0151ZM8.6451 37.5361H19.2374V50.6879H8.6451V37.5361Z" fill="#4C4C4C"/>
<path d="M28.5017 21.6962C30.7953 21.6962 32.6609 19.8109 32.6609 17.4931C32.6609 15.1753 30.7953 13.29 28.5017 13.29C26.208 13.29 24.3418 15.1753 24.3418 17.4931C24.3418 19.8109 26.208 21.6962 28.5017 21.6962ZM28.5017 14.4415C30.1666 14.4415 31.5209 15.81 31.5209 17.4925C31.5209 19.175 30.1666 20.5436 28.5017 20.5436C26.8367 20.5436 25.4818 19.175 25.4818 17.4925C25.4818 15.81 26.8367 14.4415 28.5017 14.4415Z" fill="#4C4C4C"/>
</svg>
