<svg width="24" height="24" viewBox="0 0 24 24" fill="none" xmlns="http://www.w3.org/2000/svg">
<path d="M12 0C5.37253 0 0 5.37253 0 12C0 18.6275 5.37253 24 12 24C18.6275 24 24 18.6275 24 12C24 5.37253 18.6275 0 12 0Z" fill="#CFDBE6"/>
<path d="M17.839 6.90284L15.6957 17.7091C15.6957 17.7091 15.396 18.4586 14.5716 18.0988L9.62556 14.3068L7.82706 13.4376L4.7995 12.4183C4.7995 12.4183 4.33488 12.2535 4.28988 11.8938C4.24497 11.5341 4.8145 11.3393 4.8145 11.3393L16.8498 6.61803C16.8498 6.61803 17.839 6.18341 17.839 6.90284Z" fill="white"/>
<path d="M9.24537 17.5878C9.24537 17.5878 9.101 17.5743 8.92109 17.0047C8.74128 16.4352 7.82703 13.4376 7.82703 13.4376L15.0961 8.82138C15.0961 8.82138 15.5158 8.56657 15.5008 8.82138C15.5008 8.82138 15.5757 8.86629 15.3509 9.0761C15.1261 9.28601 9.64053 14.217 9.64053 14.217" fill="#D2E5F1"/>
<path d="M11.522 15.7609L9.56561 17.5446C9.56561 17.5446 9.41271 17.6606 9.24536 17.5879L9.61999 14.2747" fill="#B5CFE4"/>
</svg>
