<svg width="80" height="80" viewBox="0 0 80 80" fill="none" xmlns="http://www.w3.org/2000/svg">
<path d="M78.9726 53.7745L66.9499 41.75C69.8546 37.9225 71.6679 33.3345 72.133 28.5243C72.7025 22.621 71.2322 16.6567 67.9924 11.7293C67.6366 11.1885 66.9097 11.0384 66.3695 11.3942C65.8287 11.7501 65.6786 12.477 66.0344 13.0178C72.1654 22.3415 70.8794 34.8457 62.9766 42.7492C53.7462 51.9801 38.7286 51.9801 29.4988 42.7492C20.2685 33.5182 20.2685 18.4981 29.4988 9.26716C38.7286 0.0362243 53.7468 0.0362243 62.9735 9.26411L63.0376 9.32881C63.4941 9.78779 64.2357 9.79084 64.6947 9.3343C65.1543 8.87837 65.1567 8.13618 64.7008 7.6772L64.6337 7.60945C54.4896 -2.53518 37.9852 -2.53518 27.8411 7.60945C27.5225 7.92805 27.2143 8.25276 26.9158 8.58357H1.17187C0.524901 8.58357 0 9.10847 0 9.75544V14.9385C0 15.5861 0.524901 16.111 1.17187 16.111C1.81945 16.111 2.34375 15.5861 2.34375 14.9385V10.9279H25.036C24.1406 12.1859 23.3703 13.5054 22.7252 14.8708H8.12498C7.47801 14.8708 6.95311 15.3951 6.95311 16.0427C6.95311 16.6902 7.47801 17.2145 8.12498 17.2145H21.7553C21.419 18.1557 21.1389 19.1121 20.9143 20.0795H8.12498C7.47801 20.0795 6.95311 20.6038 6.95311 21.2514C6.95311 21.8984 7.47801 22.4233 8.12498 22.4233H20.4809C20.3497 23.3736 20.271 24.33 20.2447 25.2876H8.12498C7.47801 25.2876 6.95311 25.8125 6.95311 26.4601C6.95311 27.1071 7.47801 27.632 8.12498 27.632H20.2856C20.4968 31.0365 21.3702 34.4069 22.9089 37.53H20.9381C20.2905 37.53 19.7662 38.055 19.7662 38.7025V73.3949C19.7662 74.0424 20.2905 74.5673 20.9381 74.5673H30.313C30.9606 74.5673 31.4849 74.0424 31.4849 73.3949V47.4421C32.5402 48.1691 33.637 48.8099 34.7662 49.3635V73.3949C34.7662 74.0424 35.2911 74.5673 35.938 74.5673H45.313C45.9606 74.5673 46.4849 74.0424 46.4849 73.3949V52.0131C47.3986 52.0039 48.3111 51.9484 49.2199 51.8446V69.947C49.2199 70.5946 49.7442 71.1195 50.3917 71.1195C51.0387 71.1195 51.5636 70.5946 51.5636 69.947V51.4674C55.2678 50.6984 58.8353 49.1175 61.9786 46.7244L73.9989 58.7464C74.6635 59.4105 75.5467 59.7767 76.4854 59.7767C77.4248 59.7767 78.3079 59.4105 78.972 58.7464C80.3422 57.3768 80.3429 55.1466 78.9726 53.7745ZM29.1412 72.223H22.1099V39.8744H24.2211C25.2349 41.4839 26.441 43.0061 27.8411 44.4069C28.2635 44.8292 28.6981 45.2327 29.1412 45.6196V72.223ZM37.1105 72.223V50.3718C39.3835 51.2196 41.7516 51.7384 44.1418 51.93V72.223H37.1105ZM77.3155 57.0887C77.094 57.3103 76.7992 57.4324 76.4861 57.4324C76.1729 57.4324 75.8781 57.3103 75.6572 57.0887L63.7853 45.2162C64.0727 44.9531 64.3559 44.6846 64.6337 44.4069C64.9108 44.1298 65.1805 43.8472 65.4436 43.5585L77.3143 55.4316C77.7715 55.8888 77.7721 56.6328 77.3155 57.0887Z" fill="#81dbfe"/>
<path d="M50.3918 73.8275C49.7449 73.8275 49.22 74.3518 49.22 74.9994V77.6562H2.34375V20.0171C2.34375 19.3695 1.81946 18.8452 1.17188 18.8452C0.524902 18.8452 0 19.3695 0 20.0171V78.8281C0 79.4757 0.524902 80 1.17188 80H50.3918C51.0394 80 51.5637 79.4757 51.5637 78.8281V74.9994C51.5637 74.3518 51.0394 73.8275 50.3918 73.8275Z" fill="#81dbfe"/>
<path d="M5.07812 48.0774V73.3942C5.07812 74.0411 5.60303 74.566 6.25 74.566H15.6256C16.2726 74.566 16.7975 74.0411 16.7975 73.3942V48.0774C16.7975 47.4304 16.2726 46.9055 15.6256 46.9055H6.25C5.60303 46.9055 5.07812 47.4304 5.07812 48.0774ZM7.42188 49.2499H14.4537V72.2217H7.42188V49.2499Z" fill="#81dbfe"/>
<path d="M16.8878 32.8412C17.5354 32.8412 18.0597 32.3163 18.0597 31.6687C18.0597 31.0217 17.5354 30.4968 16.8878 30.4968H8.125C7.47803 30.4968 6.95312 31.0217 6.95312 31.6687C6.95312 32.3163 7.47803 32.8412 8.125 32.8412H16.8878Z" fill="#81dbfe"/>
<path d="M46.2375 4.68555C40.5344 4.68555 35.178 6.90112 31.1558 10.924C27.1335 14.9468 24.918 20.3038 24.918 26.0076C24.918 31.7113 27.1335 37.0684 31.1558 41.0912C35.1786 45.114 40.5344 47.3296 46.2375 47.3296C51.9407 47.3296 57.2965 45.114 61.3193 41.0912C65.3416 37.0684 67.5565 31.7113 67.5565 26.0076C67.5565 20.3038 65.3416 14.9468 61.3193 10.924C57.2965 6.90112 51.9407 4.68555 46.2375 4.68555ZM59.6616 39.4335C56.0819 43.0138 51.3145 44.9852 46.2375 44.9852C41.16 44.9852 36.3932 43.0138 32.8135 39.4335C29.2332 35.8531 27.2617 31.0851 27.2617 26.0076C27.2617 20.9294 29.2332 16.1614 32.8135 12.5811C36.514 8.87988 41.3761 7.02869 46.2375 7.02869C51.099 7.02869 55.9611 8.87988 59.6616 12.5811C63.2413 16.1614 65.2128 20.9294 65.2128 26.0076C65.2128 31.0851 63.2413 35.8531 59.6616 39.4335Z" fill="#81dbfe"/>
</svg>
