<svg width="10" height="11" viewBox="0 0 10 11" fill="none" xmlns="http://www.w3.org/2000/svg">
<path d="M6.608 7.276L5.033 3.195C4.98633 3.07367 4.93733 2.93367 4.886 2.775C4.83467 2.61167 4.78567 2.439 4.739 2.257C4.641 2.635 4.54067 2.95 4.438 3.202L2.863 7.276H6.608ZM9.436 11H8.386C8.26467 11 8.16667 10.9697 8.092 10.909C8.01733 10.8483 7.96133 10.7713 7.924 10.678L6.986 8.256H2.485L1.547 10.678C1.519 10.762 1.46533 10.8367 1.386 10.902C1.30667 10.9673 1.20867 11 1.092 11H0.042L4.053 0.968999H5.425L9.436 11Z" fill="#81dbfe"/>
</svg>
