<svg width="24" height="32" viewBox="0 0 24 32" fill="none" xmlns="http://www.w3.org/2000/svg">
<path d="M12 20.3333C14.7667 20.3333 16.9833 18.0999 16.9833 15.3333L17 5.33325C17 2.56659 14.7667 0.333252 12 0.333252C9.23334 0.333252 7 2.56659 7 5.33325V15.3333C7 18.0999 9.23334 20.3333 12 20.3333ZM20.8333 15.3333C20.8333 20.3333 16.6 23.8333 12 23.8333C7.4 23.8333 3.16667 20.3333 3.16667 15.3333H0.333336C0.333336 21.0166 4.86667 25.7166 10.3333 26.5332V31.9999H13.6667V26.5332C19.1333 25.7332 23.6667 21.0333 23.6667 15.3333H20.8333Z" fill="#81dbfe"/>
</svg>
