<svg width="56" height="69" viewBox="0 0 56 69" fill="none" xmlns="http://www.w3.org/2000/svg">
<g clip-path="url(#clip0)">
<path d="M33.8415 33.8636C33.6774 33.7019 33.4549 33.6111 33.2229 33.6111C32.9908 33.6111 32.7683 33.7019 32.6042 33.8636C31.7028 34.7538 31.1966 35.9601 31.1966 37.2179C31.1966 38.4756 31.7028 39.682 32.6042 40.5721C32.7693 40.7292 32.9903 40.8162 33.2197 40.8142C33.4491 40.8122 33.6686 40.7215 33.8308 40.5616C33.9931 40.4017 34.0851 40.1854 34.0871 39.9592C34.0891 39.7331 34.0009 39.5152 33.8415 39.3526C33.2681 38.7859 32.9462 38.0182 32.9462 37.2179C32.9462 36.4175 33.2681 35.6499 33.8415 35.0832C34.0055 34.9214 34.0977 34.7021 34.0977 34.4734C34.0977 34.2447 34.0055 34.0254 33.8415 33.8636Z" fill="#4C4C4C"/>
<path d="M38.1728 33.8636C38.0087 34.0254 37.9166 34.2447 37.9166 34.4734C37.9166 34.7021 38.0087 34.9214 38.1728 35.0832C38.7461 35.6499 39.0681 36.4175 39.0681 37.2179C39.0681 38.0182 38.7461 38.7859 38.1728 39.3526C38.0892 39.4321 38.0225 39.5273 37.9767 39.6325C37.9308 39.7378 37.9067 39.8509 37.9057 39.9655C37.9047 40.08 37.9268 40.1935 37.9708 40.2995C38.0148 40.4055 38.0798 40.5018 38.1619 40.5828C38.2441 40.6638 38.3418 40.7279 38.4493 40.7712C38.5568 40.8146 38.6721 40.8364 38.7882 40.8354C38.9044 40.8344 39.0192 40.8106 39.126 40.7654C39.2327 40.7202 39.3293 40.6545 39.41 40.5721C40.311 39.6817 40.817 38.4755 40.817 37.2179C40.817 35.9603 40.311 34.754 39.41 33.8636C39.2459 33.7019 39.0234 33.6111 38.7914 33.6111C38.5594 33.6111 38.3369 33.7019 38.1728 33.8636Z" fill="#4C4C4C"/>
<path d="M43.7413 41.1828C44.5206 39.6449 44.7902 37.9045 44.512 36.2075C44.2338 34.5104 43.4218 32.9423 42.1908 31.7246C42.1295 31.6642 42.063 31.6134 42 31.5521V6.90015C42 6.6714 41.9078 6.45202 41.7437 6.29027C41.5796 6.12852 41.3571 6.03765 41.125 6.03765H32.375V3.45015C32.375 3.2214 32.2828 3.00202 32.1187 2.84027C31.9546 2.67852 31.7321 2.58765 31.5 2.58765H17.5C17.2679 2.58765 17.0454 2.67852 16.8813 2.84027C16.7172 3.00202 16.625 3.2214 16.625 3.45015V6.03765H7.875C7.64294 6.03765 7.42038 6.12852 7.25628 6.29027C7.09219 6.45202 7 6.6714 7 6.90015V48.3001C7 48.5289 7.09219 48.7483 7.25628 48.91C7.42038 49.0718 7.64294 49.1626 7.875 49.1626H41.125C41.3571 49.1626 41.5796 49.0718 41.7437 48.91C41.9078 48.7483 42 48.5289 42 48.3001V46.7839L47.1441 51.8545C47.6392 52.3258 48.3023 52.5866 48.9906 52.5808C49.6788 52.5749 50.3372 52.3027 50.8239 51.823C51.3106 51.3432 51.5867 50.6943 51.5926 50.0158C51.5986 49.3374 51.334 48.6838 50.8559 48.1958L43.7413 41.1828ZM18.375 4.31265H30.625V9.48765H18.375V4.31265ZM40.25 47.4376H8.75V7.76265H16.625V10.3501C16.625 10.5789 16.7172 10.7983 16.8813 10.96C17.0454 11.1218 17.2679 11.2126 17.5 11.2126H31.5C31.7321 11.2126 31.9546 11.1218 32.1187 10.96C32.2828 10.7983 32.375 10.5789 32.375 10.3501V7.76265H40.25V30.3049C38.993 29.6367 37.5825 29.2989 36.1545 29.3243C34.7265 29.3496 33.3293 29.7372 32.0975 30.4496C30.8657 31.1621 29.8408 32.1753 29.1218 33.3917C28.4029 34.6081 28.0139 35.9866 27.9926 37.3942C27.9712 38.8018 28.3182 40.1912 28.9999 41.4282C29.6817 42.6652 30.6754 43.7082 31.885 44.4566C33.0947 45.2051 34.4795 45.6336 35.9061 45.7011C37.3326 45.7685 38.7528 45.4724 40.0295 44.8415L40.25 45.0589V47.4376ZM40.95 42.0901C40.0321 42.9946 38.8628 43.6106 37.5899 43.86C36.3169 44.1095 34.9975 43.9813 33.7985 43.4916C32.5994 43.002 31.5746 42.1729 30.8536 41.1091C30.1326 40.0454 29.7477 38.7948 29.7477 37.5154C29.7477 36.2361 30.1326 34.9855 30.8536 33.9218C31.5746 32.858 32.5994 32.0289 33.7985 31.5393C34.9975 31.0496 36.3169 30.9214 37.5899 31.1709C38.8628 31.4203 40.0321 32.0362 40.95 32.9407C42.1787 34.1552 42.8687 35.8003 42.8687 37.5154C42.8687 39.2306 42.1787 40.8757 40.95 42.0901ZM49.6125 50.6289C49.4484 50.7906 49.2259 50.8814 48.9939 50.8814C48.7619 50.8814 48.5393 50.7906 48.3752 50.6289L41.5327 43.8841C41.9883 43.5225 42.4031 43.1136 42.77 42.6646L49.6125 49.4093C49.695 49.4891 49.7607 49.5843 49.8058 49.6892C49.8508 49.7942 49.8743 49.9069 49.8748 50.0209C49.8754 50.1348 49.8531 50.2478 49.8091 50.3532C49.7651 50.4586 49.7004 50.5543 49.6186 50.6349L49.6125 50.6289Z" fill="#4C4C4C"/>
<path d="M29.7561 23.1308C30.3156 23.3399 30.9334 23.3399 31.4929 23.1308L36.1812 27.0914C36.2679 27.1685 36.3695 27.2277 36.4798 27.2655C36.5901 27.3033 36.707 27.3189 36.8236 27.3115C36.9401 27.304 37.054 27.2736 37.1585 27.2221C37.2629 27.1706 37.3559 27.099 37.4318 27.0116C37.5077 26.9241 37.5651 26.8225 37.6006 26.7128C37.6361 26.6032 37.649 26.4876 37.6384 26.3729C37.6279 26.2583 37.5942 26.1468 37.5393 26.0452C37.4843 25.9436 37.4093 25.8539 37.3187 25.7813L32.8693 22.0225C33.1159 21.6241 33.2475 21.167 33.2499 20.7003C33.2499 20.014 32.9734 19.3559 32.4811 18.8707C31.9888 18.3854 31.3211 18.1128 30.6249 18.1128C29.9287 18.1128 29.2611 18.3854 28.7688 18.8707C28.2765 19.3559 27.9999 20.014 27.9999 20.7003C28.0022 21.167 28.1338 21.6242 28.3806 22.0225L25.5806 24.3866C25.2416 24.2309 24.8722 24.1503 24.4982 24.1503C24.1242 24.1503 23.7548 24.2309 23.4158 24.3866L20.6158 22.0225C20.8638 21.6245 20.9966 21.1673 20.9999 20.7003C20.9999 20.014 20.7234 19.3559 20.2311 18.8707C19.7388 18.3854 19.0711 18.1128 18.3749 18.1128C17.6787 18.1128 17.0111 18.3854 16.5188 18.8707C16.0265 19.3559 15.7499 20.014 15.7499 20.7003C15.7522 21.167 15.8838 21.6242 16.1306 22.0225L11.6812 25.7821C11.5878 25.8538 11.5102 25.9435 11.453 26.0456C11.3958 26.1477 11.3602 26.2602 11.3483 26.3762C11.3365 26.4923 11.3487 26.6095 11.3841 26.7208C11.4195 26.8321 11.4775 26.9352 11.5545 27.0238C11.6315 27.1124 11.726 27.1846 11.8321 27.2362C11.9383 27.2878 12.0539 27.3176 12.1721 27.3238C12.2903 27.3301 12.4085 27.3126 12.5197 27.2725C12.6308 27.2324 12.7325 27.1705 12.8187 27.0906L17.5061 23.1308C18.0659 23.3401 18.684 23.3401 19.2438 23.1308L22.1576 25.5933C21.9743 25.9479 21.8775 26.3398 21.8749 26.7378C21.8749 27.424 22.1515 28.0822 22.6438 28.5674C23.1361 29.0527 23.8037 29.3253 24.4999 29.3253C25.1961 29.3253 25.8638 29.0527 26.3561 28.5674C26.8484 28.0822 27.1249 27.424 27.1249 26.7378C27.1224 26.3395 27.0256 25.9473 26.8423 25.5924L29.7561 23.1308ZM30.6249 19.8378C30.798 19.8378 30.9672 19.8884 31.1111 19.9832C31.255 20.0779 31.3671 20.2126 31.4333 20.3702C31.4996 20.5278 31.5169 20.7013 31.4831 20.8686C31.4494 21.0359 31.366 21.1896 31.2437 21.3102C31.1213 21.4308 30.9654 21.5129 30.7956 21.5462C30.6259 21.5795 30.45 21.5624 30.2901 21.4971C30.1302 21.4319 29.9935 21.3213 29.8974 21.1795C29.8013 21.0376 29.7499 20.8709 29.7499 20.7003C29.7499 20.4715 29.8421 20.2522 30.0062 20.0904C30.1703 19.9287 30.3929 19.8378 30.6249 19.8378ZM18.3749 21.5628C18.2019 21.5628 18.0327 21.5122 17.8888 21.4174C17.7449 21.3227 17.6328 21.188 17.5665 21.0304C17.5003 20.8728 17.483 20.6993 17.5168 20.532C17.5505 20.3647 17.6338 20.211 17.7562 20.0904C17.8786 19.9698 18.0345 19.8876 18.2042 19.8544C18.374 19.8211 18.5499 19.8382 18.7098 19.9034C18.8697 19.9687 19.0063 20.0793 19.1025 20.2211C19.1986 20.363 19.2499 20.5297 19.2499 20.7003C19.2499 20.929 19.1578 21.1484 18.9937 21.3102C18.8296 21.4719 18.607 21.5628 18.3749 21.5628ZM24.4999 27.6003C24.3269 27.6003 24.1577 27.5497 24.0138 27.4549C23.8699 27.3602 23.7578 27.2255 23.6915 27.0679C23.6253 26.9103 23.608 26.7368 23.6418 26.5695C23.6755 26.4022 23.7588 26.2485 23.8812 26.1279C24.0036 26.0073 24.1595 25.9252 24.3292 25.8919C24.499 25.8586 24.6749 25.8757 24.8348 25.941C24.9947 26.0062 25.1313 26.1168 25.2275 26.2586C25.3236 26.4005 25.3749 26.5672 25.3749 26.7378C25.3749 26.9665 25.2828 27.1859 25.1187 27.3477C24.9546 27.5094 24.732 27.6003 24.4999 27.6003Z" fill="#4C4C4C"/>
<path d="M20.125 32.7751H13.125C12.8929 32.7751 12.6704 32.866 12.5063 33.0278C12.3422 33.1895 12.25 33.4089 12.25 33.6376C12.25 33.8664 12.3422 34.0858 12.5063 34.2475C12.6704 34.4093 12.8929 34.5001 13.125 34.5001H20.125C20.3571 34.5001 20.5796 34.4093 20.7437 34.2475C20.9078 34.0858 21 33.8664 21 33.6376C21 33.4089 20.9078 33.1895 20.7437 33.0278C20.5796 32.866 20.3571 32.7751 20.125 32.7751Z" fill="#4C4C4C"/>
<path d="M20.125 36.2251H13.125C12.8929 36.2251 12.6704 36.316 12.5063 36.4777C12.3422 36.6395 12.25 36.8588 12.25 37.0876C12.25 37.3163 12.3422 37.5357 12.5063 37.6975C12.6704 37.8592 12.8929 37.9501 13.125 37.9501H20.125C20.3571 37.9501 20.5796 37.8592 20.7437 37.6975C20.9078 37.5357 21 37.3163 21 37.0876C21 36.8588 20.9078 36.6395 20.7437 36.4777C20.5796 36.316 20.3571 36.2251 20.125 36.2251Z" fill="#4C4C4C"/>
<path d="M20.125 39.6753H13.125C12.8929 39.6753 12.6704 39.7662 12.5063 39.9279C12.3422 40.0897 12.25 40.309 12.25 40.5378C12.25 40.7665 12.3422 40.9859 12.5063 41.1477C12.6704 41.3094 12.8929 41.4003 13.125 41.4003H20.125C20.3571 41.4003 20.5796 41.3094 20.7437 41.1477C20.9078 40.9859 21 40.7665 21 40.5378C21 40.309 20.9078 40.0897 20.7437 39.9279C20.5796 39.7662 20.3571 39.6753 20.125 39.6753Z" fill="#4C4C4C"/>
</g>
<defs>
<clipPath id="clip0">
<rect width="56" height="69" fill="#4C4C4C"/>
</clipPath>
</defs>
</svg>
