<svg width="85" height="102" viewBox="0 0 85 102" fill="none" xmlns="http://www.w3.org/2000/svg">
<path d="M75.7563 19.7806H47.5133V8.97591C47.5133 8.52466 47.1334 8.15991 46.6633 8.15991H38.5475C38.0775 8.15991 37.6975 8.52466 37.6975 8.97591V19.7806H9.45626C8.98621 19.7806 8.60626 20.1453 8.60626 20.5966V72.6239C8.60626 73.0752 8.98621 73.4399 9.45626 73.4399H75.7563C76.2263 73.4399 76.6063 73.0752 76.6063 72.6239V20.5966C76.6063 20.1453 76.2263 19.7806 75.7563 19.7806ZM38.5484 29.3008H46.6642C47.1342 29.3008 47.5142 28.9361 47.5142 28.4848V26.1723H48.5469C49.9528 26.1723 51.0969 27.2706 51.0969 28.6203C51.0969 29.97 49.9528 31.0683 48.5469 31.0683H36.6656C35.2597 31.0683 34.1156 29.97 34.1156 28.6203C34.1156 27.2706 35.2597 26.1723 36.6656 26.1723H37.6984V28.4848C37.6984 28.9361 38.0783 29.3008 38.5484 29.3008ZM39.3984 9.79191H45.8142V27.6688H39.3984V9.79191ZM74.9063 71.8079H10.3063V21.4126H37.6984V24.5403H36.6656C34.3222 24.5403 32.4156 26.3706 32.4156 28.6203C32.4156 30.87 34.3222 32.7003 36.6656 32.7003H48.5469C50.8904 32.7003 52.7969 30.87 52.7969 28.6203C52.7969 26.3706 50.8904 24.5403 48.5469 24.5403H47.5142V21.4126H74.9071V71.8079H74.9063Z" fill="#4C4C4C" stroke="#4C4C4C"/>
<path d="M42.6062 22.468C41.4638 22.468 40.5339 23.3607 40.5339 24.4574C40.5339 25.5541 41.4638 26.4468 42.6062 26.4468C43.7486 26.4468 44.6785 25.5541 44.6785 24.4574C44.6785 23.3607 43.7486 22.468 42.6062 22.468ZM42.6062 24.814C42.4014 24.814 42.2339 24.6541 42.2339 24.4566C42.2339 24.2591 42.4005 24.0992 42.6062 24.0992C42.8119 24.0992 42.9785 24.2591 42.9785 24.4566C42.9785 24.6541 42.8111 24.814 42.6062 24.814Z" fill="#4C4C4C"/>
<path d="M44.7848 38.148C44.7848 38.5993 45.1648 38.964 45.6348 38.964H69.3821C69.8522 38.964 70.2321 38.5993 70.2321 38.148C70.2321 37.6968 69.8522 37.332 69.3821 37.332H45.6348C45.1648 37.332 44.7848 37.6968 44.7848 38.148Z" fill="#4C4C4C"/>
<path d="M69.3813 46.291H45.6348C45.1648 46.291 44.7848 46.6558 44.7848 47.107C44.7848 47.5583 45.1648 47.923 45.6348 47.923H69.3821C69.8522 47.923 70.2321 47.5583 70.2321 47.107C70.2321 46.6558 69.8513 46.291 69.3813 46.291Z" fill="#4C4C4C"/>
<path d="M69.3813 55.2483H45.6348C45.1648 55.2483 44.7848 55.613 44.7848 56.0643C44.7848 56.5155 45.1648 56.8803 45.6348 56.8803H69.3821C69.8522 56.8803 70.2321 56.5155 70.2321 56.0643C70.2321 55.613 69.8513 55.2483 69.3813 55.2483Z" fill="#4C4C4C"/>
<path d="M69.3813 64.2068H45.6348C45.1648 64.2068 44.7848 64.5715 44.7848 65.0228C44.7848 65.474 45.1648 65.8388 45.6348 65.8388H69.3821C69.8522 65.8388 70.2321 65.474 70.2321 65.0228C70.2321 64.5715 69.8513 64.2068 69.3813 64.2068Z" fill="#4C4C4C"/>
<path d="M38.9937 37.332H16.6812C16.2112 37.332 15.8312 37.6968 15.8312 38.148V65.023C15.8312 65.4742 16.2112 65.839 16.6812 65.839H38.9937C39.4638 65.839 39.8437 65.4742 39.8437 65.023V38.148C39.8437 37.6968 39.4638 37.332 38.9937 37.332ZM38.1437 64.207H17.5312V38.964H38.1437V64.207Z" fill="#4C4C4C"/>
</svg>
