<svg width="24" height="24" viewBox="0 0 24 24" fill="none" xmlns="http://www.w3.org/2000/svg">
<circle cx="12" cy="12" r="12" fill="none"/>
<path d="M18.7075 8.56466C18.5464 7.94878 18.072 7.46372 17.4697 7.29911C16.3779 7 12 7 12 7C12 7 7.6221 7 6.53029 7.29911C5.92795 7.46375 5.45356 7.94878 5.29254 8.56466C5 9.68099 5 12.0101 5 12.0101C5 12.0101 5 14.3392 5.29254 15.4555C5.45356 16.0714 5.92795 16.5363 6.53029 16.7009C7.6221 17 12 17 12 17C12 17 16.3779 17 17.4697 16.7009C18.072 16.5363 18.5464 16.0714 18.7075 15.4555C19 14.3392 19 12.0101 19 12.0101C19 12.0101 19 9.68099 18.7075 8.56466V8.56466ZM10.5682 14.1248V9.89544L14.2272 12.0102L10.5682 14.1248V14.1248Z" fill="white"/>
</svg>