<svg width="24" height="24" viewBox="0 0 24 24" fill="none" xmlns="http://www.w3.org/2000/svg">
<path d="M9.38258 17.0078V10.2578H7.12943V17.0078H9.38258ZM8.25894 9.33203C9.04137 9.33203 9.52965 8.81641 9.52965 8.16602C9.51789 7.50391 9.04137 7 8.27659 7C7.50593 7 7 7.50391 7 8.17188C7 8.81641 7.48828 9.33789 8.24718 9.33789H8.25894V9.33203ZM10.6298 17.0078H12.8829V13.2461C12.8829 13.041 12.9006 12.8359 12.9594 12.6953C13.1182 12.2969 13.4888 11.875 14.1124 11.875C14.9302 11.875 15.2537 12.4961 15.2537 13.3984V17.0137H17.5128V13.1465C17.5128 11.0723 16.4009 10.0996 14.9243 10.0996C14.5105 10.0837 14.1003 10.182 13.739 10.3836C13.3777 10.5852 13.0794 10.8823 12.877 11.2422H12.8888V10.2578H10.6298C10.6592 10.8906 10.6298 17.0078 10.6298 17.0078Z" fill="white"/>
</svg>
