<svg width="20" height="12" viewBox="0 0 20 12" fill="none" xmlns="http://www.w3.org/2000/svg">
<path d="M7.552 7.744L5.752 3.08C5.69867 2.94133 5.64267 2.78133 5.584 2.6C5.52533 2.41333 5.46933 2.216 5.416 2.008C5.304 2.44 5.18933 2.8 5.072 3.088L3.272 7.744H7.552ZM10.784 12H9.584C9.44533 12 9.33333 11.9653 9.248 11.896C9.16267 11.8267 9.09867 11.7387 9.056 11.632L7.984 8.864H2.84L1.768 11.632C1.736 11.728 1.67467 11.8133 1.584 11.888C1.49333 11.9627 1.38133 12 1.248 12H0.048L4.632 0.535999H6.2L10.784 12ZM19.3081 7.168H16.0441V10.608H14.8841V7.168H11.6361V6.088H14.8841V2.672H16.0441V6.088H19.3081V7.168Z" fill="#81dbfe"/>
</svg>
