<svg width="26" height="32" viewBox="0 0 26 32" fill="none" xmlns="http://www.w3.org/2000/svg">
    <path d="M23.048 0.799561H2.95203C1.67203 0.799561 0.648026 1.82356 0.648026 3.10356V28.9276C0.648026 30.2076 1.67203 31.2316 2.95203 31.2316H23.016C24.296 31.2316 25.32 30.2076 25.32 28.9276V3.10356C25.32 1.82356 24.296 0.799561 23.048 0.799561ZM18.632 25.8876H7.36803C6.72803 25.8876 6.21603 25.3756 6.21603 24.7356C6.21603 24.0956 6.72803 23.5836 7.36803 23.5836H18.632C19.272 23.5836 19.784 24.0956 19.784 24.7356C19.784 25.3756 19.272 25.8876 18.632 25.8876ZM18.632 20.7036H7.36803C6.72803 20.7036 6.21603 20.1916 6.21603 19.5516C6.21603 18.9116 6.72803 18.3996 7.36803 18.3996H18.632C19.272 18.3996 19.784 18.9116 19.784 19.5516C19.784 20.1916 19.272 20.7036 18.632 20.7036ZM19.528 12.0316H17.736L16.04 15.0716C15.848 15.4236 15.464 15.6476 15.048 15.6476C14.632 15.6476 14.248 15.4236 14.056 15.0716L10.952 9.59956L9.92803 11.4556C9.73603 11.8076 9.35203 12.0316 8.93603 12.0316H6.47203C5.83203 12.0316 5.32003 11.5196 5.32003 10.8796C5.32003 10.2396 5.83203 9.72756 6.47203 9.72756H8.26403L9.96003 6.68756C10.152 6.33556 10.536 6.11156 10.952 6.11156C11.368 6.11156 11.752 6.33556 11.944 6.68756L15.016 12.1916L16.04 10.3356C16.232 9.98356 16.616 9.75956 17.032 9.75956H19.496C20.136 9.75956 20.648 10.2716 20.648 10.9116C20.68 11.5196 20.168 12.0316 19.528 12.0316Z" fill="#4C4C4C" />
</svg>
    