<svg width="18" height="18" viewBox="0 0 18 18" fill="none" xmlns="http://www.w3.org/2000/svg">
<g clip-path="url(#clip0_1079_19)">
<path d="M5.31984 5.34564L3.71495 5.92794C3.70074 5.92794 3.70074 5.92794 3.68654 5.92794C3.67234 5.92794 3.64393 5.91374 3.62973 5.91374L3.18945 5.47346C2.3373 6.7659 1.88281 8.27137 1.88281 9.83365C1.88281 14.2223 5.44766 17.7729 9.82206 17.7729C14.1965 17.7729 17.7613 14.208 17.7613 9.83365C17.7613 5.45926 14.1965 1.89441 9.82206 1.89441C8.27397 1.89441 6.7685 2.34889 5.47607 3.18684L5.91635 3.62712C5.93055 3.64133 5.94475 3.66973 5.93055 3.69814L5.34824 5.30303" fill="#B8C9D9"/>
<path d="M9.83904 16.0969C13.2903 16.0969 16.1024 13.2848 16.1024 9.83353C16.1024 6.3823 13.2903 3.57019 9.83904 3.57019C8.43298 3.57019 7.11214 4.02467 6.00434 4.87683C5.74869 5.07566 4.89654 5.98463 4.89654 5.98463C4.04438 7.09243 3.5899 8.41327 3.5899 9.81933C3.57569 13.2848 6.38781 16.0969 9.83904 16.0969Z" fill="#F4EFEF"/>
<path d="M9.83886 14.4067C12.3669 14.4067 14.4121 12.3615 14.4121 9.83349C14.4121 7.31963 12.3669 5.26025 9.83886 5.26025C8.90149 5.26025 7.96412 5.58691 6.98414 6.25443C6.7995 6.38226 6.27401 6.96456 6.27401 6.96456C5.62069 7.77411 5.26562 8.7967 5.26562 9.83349C5.26563 12.3615 7.3108 14.4067 9.83886 14.4067Z" fill="#B8C9D9"/>
<path d="M9.83873 12.7166C11.4294 12.7166 12.7219 11.4241 12.7219 9.83344C12.7219 8.24275 11.4294 6.95032 9.83873 6.95032C9.29904 6.95032 8.75934 7.12075 8.19123 7.46161C7.97819 7.58943 7.4811 8.17174 7.4669 8.17174C7.12604 8.65463 6.94141 9.22273 6.94141 9.81924C6.95561 11.4241 8.24804 12.7166 9.83873 12.7166Z" fill="#F4EFEF"/>
<path d="M9.83755 11.0265C10.4909 11.0265 11.0164 10.501 11.0164 9.84764C11.0164 9.19432 10.4909 8.66882 9.83755 8.66882C9.68132 8.66882 9.53929 8.71143 9.42567 8.73984C8.88598 8.91027 8.74395 9.39316 8.72975 9.42156C8.67294 9.56359 8.64453 9.70561 8.64453 9.86184C8.64453 10.4868 9.18423 11.0265 9.83755 11.0265Z" fill="#B8C9D9"/>
<path d="M4.22957 4.32302L1.74412 1.82336L0.28125 2.36306L3.23539 5.3172L3.70407 5.80008L5.16694 5.26038L4.22957 4.32302Z" fill="#333333"/>
<path d="M5.32338 3.21525L2.36925 0.261108L1.84375 1.72397L4.3292 4.22363L5.26657 5.161L5.80627 3.69813L5.32338 3.21525Z" fill="#4C4C4C"/>
<path d="M9.83979 18C5.33757 18 1.6875 14.3357 1.6875 9.84772C1.6875 8.21442 2.17039 6.65214 3.06515 5.30289C3.10776 5.23188 3.19297 5.21767 3.26399 5.26028C3.335 5.30289 3.3492 5.38811 3.30659 5.45912C2.42603 6.75155 1.97155 8.27123 1.97155 9.84772C1.97155 14.1937 5.508 17.7159 9.83979 17.7159C14.1858 17.7159 17.708 14.1795 17.708 9.84772C17.708 5.50173 14.1716 1.97949 9.83979 1.97949C8.2775 1.97949 6.75782 2.43397 5.46539 3.31453C5.39438 3.35714 5.30916 3.34293 5.26655 3.27192C5.22394 3.20091 5.23815 3.11569 5.30916 3.07309C6.65841 2.17832 8.22069 1.69543 9.83979 1.69543C14.342 1.69543 17.9921 5.3597 17.9921 9.84772C17.9921 14.3357 14.342 18 9.83979 18Z" fill="black"/>
<path d="M9.83718 16.3099C6.27233 16.3099 3.375 13.4126 3.375 9.84772C3.375 8.39905 3.84369 7.0214 4.73845 5.87099C4.78106 5.81418 4.88047 5.79998 4.93728 5.84259C4.99409 5.8852 5.0083 5.98461 4.96569 6.04142C4.11353 7.13502 3.65905 8.44166 3.65905 9.83351C3.65905 13.2421 6.42856 16.0116 9.83718 16.0116C13.2458 16.0116 16.0153 13.2421 16.0153 9.83351C16.0153 6.42489 13.2458 3.65539 9.83718 3.65539C8.44532 3.65539 7.13868 4.10987 6.04509 4.94783C5.98828 4.99043 5.88886 4.99043 5.84625 4.91942C5.80364 4.86261 5.80364 4.76319 5.87465 4.72058C7.01086 3.84002 8.38851 3.37134 9.83718 3.37134C13.402 3.37134 16.2994 6.26867 16.2994 9.83351C16.2994 13.3984 13.402 16.3099 9.83718 16.3099Z" fill="black"/>
<path d="M9.83705 14.6198C7.19537 14.6198 5.05078 12.4752 5.05078 9.83351C5.05078 8.73991 5.43425 7.67472 6.11597 6.82256C6.15858 6.76575 6.258 6.75155 6.31481 6.80836C6.37162 6.85097 6.38582 6.95039 6.32901 7.0072C5.6899 7.80254 5.33483 8.81093 5.33483 9.83351C5.33483 12.319 7.3516 14.3357 9.83705 14.3357C12.3225 14.3357 14.3393 12.319 14.3393 9.83351C14.3393 7.34806 12.3225 5.33129 9.83705 5.33129C8.81447 5.33129 7.83449 5.67216 7.03914 6.31127C6.98233 6.35388 6.88291 6.35388 6.84031 6.28287C6.7977 6.22606 6.7977 6.12664 6.86871 6.08403C7.72087 5.40231 8.75766 5.04724 9.85125 5.04724C12.4929 5.04724 14.6375 7.19183 14.6375 9.83351C14.6233 12.4752 12.4787 14.6198 9.83705 14.6198Z" fill="black"/>
<path d="M9.83835 12.9296C8.13404 12.9296 6.74219 11.5378 6.74219 9.83347C6.74219 9.19435 6.94102 8.56944 7.31029 8.05814C7.3529 7.98713 7.43811 7.97293 7.50913 8.02974C7.58014 8.07235 7.59434 8.15756 7.53753 8.22858C7.19667 8.69726 7.02624 9.26536 7.02624 9.84767C7.02624 11.3958 8.29027 12.6598 9.83835 12.6598C11.3864 12.6598 12.6505 11.3958 12.6505 9.84767C12.6505 8.29959 11.3864 7.03556 9.83835 7.03556C9.25605 7.03556 8.70214 7.20599 8.23346 7.53265C8.16245 7.57526 8.07723 7.56105 8.03462 7.49004C7.99201 7.41903 8.00622 7.33381 8.07723 7.29121C8.60273 6.93614 9.21344 6.7373 9.83835 6.7373C11.5427 6.7373 12.9345 8.12916 12.9345 9.83347C12.9345 11.5378 11.5427 12.9296 9.83835 12.9296Z" fill="black"/>
<path d="M9.83717 11.2394C9.07023 11.2394 8.44531 10.6145 8.44531 9.84758C8.44531 9.67715 8.47372 9.50672 8.54473 9.33629C8.57314 9.26528 8.65835 9.22267 8.72936 9.25108C8.80038 9.27948 8.84298 9.3647 8.81458 9.43571C8.75777 9.56353 8.74357 9.70556 8.74357 9.83338C8.74357 10.4441 9.24066 10.9412 9.85137 10.9412C10.4621 10.9412 10.9592 10.4441 10.9592 9.83338C10.9592 9.22267 10.4621 8.72558 9.85137 8.72558C9.72355 8.72558 9.59572 8.75399 9.4679 8.79659C9.39689 8.825 9.31167 8.78239 9.28327 8.71138C9.25486 8.64036 9.29747 8.55515 9.36848 8.52674C9.52471 8.46993 9.68094 8.44153 9.85137 8.44153C10.6183 8.44153 11.2432 9.06644 11.2432 9.83338C11.2432 10.6003 10.6041 11.2394 9.83717 11.2394Z" fill="black"/>
<path d="M9.8392 9.9756C9.79659 9.9756 9.76818 9.96139 9.73978 9.93299L5.19495 5.38817C5.13814 5.33136 5.13814 5.24615 5.19495 5.18934C5.25176 5.13253 5.33698 5.13253 5.39379 5.18934L9.93861 9.73415C9.99542 9.79096 9.99542 9.87618 9.93861 9.93299C9.92441 9.96139 9.8818 9.9756 9.8392 9.9756Z" fill="black"/>
<path d="M3.69019 6.01319C3.64758 6.01319 3.61918 5.99899 3.59077 5.97058L0.0543265 2.43414C0.0259213 2.40573 0.0117188 2.34892 0.0117188 2.30631C0.0259213 2.26371 0.0543265 2.2211 0.0969343 2.2069L1.70183 1.62459C1.75864 1.61039 1.81545 1.62459 1.85805 1.653L5.3945 5.18944C5.4229 5.21784 5.43711 5.27465 5.43711 5.31726C5.4229 5.35987 5.3945 5.40248 5.35189 5.41668L3.747 5.99899C3.71859 6.01319 3.70439 6.01319 3.69019 6.01319ZM0.409391 2.39153L3.71859 5.70073L5.03943 5.21784L1.73023 1.90864L0.409391 2.39153Z" fill="white"/>
<path d="M5.29233 5.43071C5.24972 5.43071 5.22131 5.41651 5.19291 5.38811L1.65646 1.85166C1.61386 1.80905 1.59965 1.75224 1.62806 1.69543L2.21037 0.0905415C2.22457 0.0479337 2.26718 0.00532597 2.30978 0.00532597C2.35239 -0.00887662 2.4092 0.00532597 2.43761 0.0479337L5.97405 3.58438C6.01666 3.62698 6.03086 3.6838 6.00245 3.74061L5.42015 5.3455C5.40595 5.38811 5.36334 5.43071 5.32073 5.43071C5.32073 5.43071 5.30653 5.43071 5.29233 5.43071ZM1.92631 1.70964L5.23552 5.01884L5.7184 3.698L2.4092 0.388796L1.92631 1.70964Z" fill="white"/>
</g>
<defs>
<clipPath id="clip0_1079_19">
<rect width="18" height="18" fill="white"/>
</clipPath>
</defs>
</svg>
