<svg width="72" height="72" viewBox="0 0 72 72" fill="none" xmlns="http://www.w3.org/2000/svg">
<g clip-path="url(#clip0_1140_409)">
<path d="M35.6953 11.4072C35.6953 14.4941 38.245 16.9961 41.3875 16.9961C44.5323 16.9961 47.0809 14.4941 47.0809 11.4072H35.6953Z" fill="#F7F7F7"/>
<path d="M53.0828 10.9754L51.2702 11.6204L51.2941 11.7124C50.1584 12.4052 48.5922 12.7993 49.5303 11.115C50.005 10.2712 49.9324 9.43987 49.3725 8.73686L49.67 8.57104L41.2839 3.41602L33.3906 8.62896L35.0488 9.67382L35.0499 10.5608H47.7495L47.7472 9.63975L48.9886 8.94923C49.5167 9.54889 49.5701 10.1826 49.1885 10.8561C48.1504 12.6926 49.4213 13.3297 51.4065 12.1667L51.4258 12.2292L53.2441 11.5841L53.0828 10.9754Z" fill="#F7F7F7"/>
<path d="M37.5898 18.0599L41.4025 27.0707L46.0169 18.1508C43.3479 17.751 40.1463 17.835 37.5898 18.0599Z" fill="#F7F7F7"/>
<path d="M48.6857 18.8041L41.1661 33.3458L34.8367 18.3884C34.7039 18.4089 34.5619 18.4293 34.4426 18.4497C28.379 11.69 27.4818 5.13231 26.6346 3.80352L31.1809 4.31346L31.4602 1.81034L15.2638 0L14.9844 2.50199L21.2876 3.20727C20.3552 3.97501 19.8146 5.18342 20.2405 6.70528C22.5449 14.9256 27.0014 21.8387 33.4228 27.2073L29.4489 57.9659H33.5068L33.5568 68.7553C33.5568 72.979 40.1349 72.9858 40.1349 68.7553V57.9659H42.5244V68.8166C42.5244 72.8825 48.9128 73.2368 48.9128 68.8166V57.9659H52.9821L50.8515 41.8285C52.7993 43.7922 57.065 43.0108 57.0116 39.4503C57.0082 23.6775 48.9276 18.8972 48.6857 18.8041Z" fill="#F7F7F7"/>
</g>
<defs>
<clipPath id="clip0_1140_409">
<rect width="72" height="72" fill="white"/>
</clipPath>
</defs>
</svg>
