<svg width="18" height="18" viewBox="0 0 18 18" fill="none" xmlns="http://www.w3.org/2000/svg">
<g clip-path="url(#clip0)">
<path d="M5.32133 5.34552L3.71644 5.92782C3.70224 5.92782 3.70224 5.92782 3.68804 5.92782C3.67383 5.92782 3.64543 5.91362 3.63123 5.91362L3.19095 5.47334C2.33879 6.76577 1.88431 8.27125 1.88431 9.83353C1.88431 14.2221 5.44916 17.7728 9.82355 17.7728C14.1979 17.7728 17.7628 14.2079 17.7628 9.83353C17.7628 5.45914 14.1979 1.89429 9.82355 1.89429C8.27547 1.89429 6.77 2.34877 5.47756 3.18672L5.91784 3.627C5.93204 3.64121 5.94625 3.66961 5.93204 3.69802L5.34974 5.30291" fill="#B8C9D9"/>
<path d="M9.83815 16.097C13.2894 16.097 16.1015 13.2849 16.1015 9.83365C16.1015 6.38242 13.2894 3.57031 9.83815 3.57031C8.43209 3.57031 7.11125 4.0248 6.00345 4.87695C5.74781 5.07579 4.89565 5.98475 4.89565 5.98475C4.0435 7.09255 3.58901 8.41339 3.58901 9.81945C3.57481 13.2849 6.38692 16.097 9.83815 16.097Z" fill="#F4EFEF"/>
<path d="M9.83806 14.4067C12.3661 14.4067 14.4113 12.3615 14.4113 9.83349C14.4113 7.31963 12.3661 5.26025 9.83806 5.26025C8.90069 5.26025 7.96332 5.58691 6.98334 6.25443C6.79871 6.38226 6.27322 6.96456 6.27322 6.96456C5.6199 7.77411 5.26483 8.7967 5.26483 9.83349C5.26483 12.3615 7.31 14.4067 9.83806 14.4067Z" fill="#B8C9D9"/>
<path d="M9.83794 12.7164C11.4286 12.7164 12.7211 11.424 12.7211 9.83332C12.7211 8.24263 11.4286 6.9502 9.83794 6.9502C9.29824 6.9502 8.75854 7.12063 8.19044 7.46149C7.9774 7.58931 7.48031 8.17162 7.46611 8.17162C7.12525 8.65451 6.94061 9.22261 6.94061 9.81912C6.95482 11.424 8.24725 12.7164 9.83794 12.7164Z" fill="#F4EFEF"/>
<path d="M9.83792 11.0266C10.4912 11.0266 11.0167 10.5011 11.0167 9.84776C11.0167 9.19444 10.4912 8.66895 9.83792 8.66895C9.68169 8.66895 9.53966 8.71155 9.42604 8.73996C8.88634 8.91039 8.74432 9.39328 8.73011 9.42168C8.6733 9.56371 8.6449 9.70573 8.6449 9.86196C8.6449 10.4869 9.1846 11.0266 9.83792 11.0266Z" fill="#B8C9D9"/>
<path d="M4.22786 4.32314L1.74241 1.82349L0.279541 2.36318L3.23368 5.31732L3.70236 5.8002L5.16523 5.26051L4.22786 4.32314Z" fill="#333333"/>
<path d="M5.32149 3.21512L2.36735 0.260986L1.84186 1.72385L4.32731 4.22351L5.26468 5.16088L5.80438 3.69801L5.32149 3.21512Z" fill="#4C4C4C"/>
<path d="M9.83786 17.9999C5.33564 17.9999 1.68558 14.3356 1.68558 9.8476C1.68558 8.2143 2.16847 6.65201 3.06323 5.30277C3.10584 5.23176 3.19105 5.21755 3.26206 5.26016C3.33308 5.30277 3.34728 5.38798 3.30467 5.459C2.42411 6.75143 1.96963 8.27111 1.96963 9.8476C1.96963 14.1936 5.50607 17.7158 9.83786 17.7158C14.1839 17.7158 17.7061 14.1794 17.7061 9.8476C17.7061 5.5016 14.1697 1.97936 9.83786 1.97936C8.27558 1.97936 6.7559 2.43385 5.46347 3.31441C5.39245 3.35701 5.30724 3.34281 5.26463 3.2718C5.22202 3.20079 5.23622 3.11557 5.30724 3.07296C6.65648 2.1782 8.21877 1.69531 9.83786 1.69531C14.3401 1.69531 17.9901 5.35958 17.9901 9.8476C17.9901 14.3356 14.3401 17.9999 9.83786 17.9999Z" fill="black"/>
<path d="M9.83779 16.3099C6.27294 16.3099 3.37561 13.4126 3.37561 9.84772C3.37561 8.39905 3.8443 7.0214 4.73906 5.87099C4.78167 5.81418 4.88108 5.79998 4.93789 5.84259C4.9947 5.8852 5.00891 5.98461 4.9663 6.04142C4.11414 7.13502 3.65966 8.44166 3.65966 9.83351C3.65966 13.2421 6.42917 16.0116 9.83779 16.0116C13.2464 16.0116 16.0159 13.2421 16.0159 9.83351C16.0159 6.42489 13.2464 3.65539 9.83779 3.65539C8.44593 3.65539 7.13929 4.10987 6.0457 4.94783C5.98889 4.99043 5.88947 4.99043 5.84686 4.91942C5.80425 4.86261 5.80425 4.76319 5.87527 4.72058C7.01147 3.84002 8.38912 3.37134 9.83779 3.37134C13.4026 3.37134 16.3 6.26867 16.3 9.83351C16.3 13.3984 13.4026 16.3099 9.83779 16.3099Z" fill="black"/>
<path d="M9.83797 14.6199C7.19629 14.6199 5.0517 12.4753 5.0517 9.83363C5.0517 8.74004 5.43517 7.67484 6.11689 6.82269C6.1595 6.76588 6.25892 6.75167 6.31573 6.80848C6.37254 6.85109 6.38674 6.95051 6.32993 7.00732C5.69081 7.80266 5.33575 8.81105 5.33575 9.83363C5.33575 12.3191 7.35252 14.3359 9.83797 14.3359C12.3234 14.3359 14.3402 12.3191 14.3402 9.83363C14.3402 7.34818 12.3234 5.33141 9.83797 5.33141C8.81538 5.33141 7.8354 5.67228 7.04006 6.31139C6.98325 6.354 6.88383 6.354 6.84122 6.28299C6.79861 6.22618 6.79861 6.12676 6.86963 6.08415C7.72178 5.40243 8.75857 5.04736 9.85217 5.04736C12.4938 5.04736 14.6384 7.19195 14.6384 9.83363C14.6242 12.4753 12.4796 14.6199 9.83797 14.6199Z" fill="black"/>
<path d="M9.83789 12.9296C8.13358 12.9296 6.74173 11.5378 6.74173 9.83347C6.74173 9.19435 6.94057 8.56944 7.30983 8.05814C7.35244 7.98713 7.43766 7.97293 7.50867 8.02974C7.57968 8.07235 7.59388 8.15756 7.53707 8.22858C7.19621 8.69726 7.02578 9.26536 7.02578 9.84767C7.02578 11.3958 8.28981 12.6598 9.83789 12.6598C11.386 12.6598 12.65 11.3958 12.65 9.84767C12.65 8.29959 11.386 7.03556 9.83789 7.03556C9.25559 7.03556 8.70169 7.20599 8.233 7.53265C8.16199 7.57526 8.07677 7.56105 8.03416 7.49004C7.99156 7.41903 8.00576 7.33381 8.07677 7.29121C8.60227 6.93614 9.21298 6.7373 9.83789 6.7373C11.5422 6.7373 12.9341 8.12916 12.9341 9.83347C12.9341 11.5378 11.5422 12.9296 9.83789 12.9296Z" fill="black"/>
<path d="M9.83802 11.2396C9.07108 11.2396 8.44617 10.6146 8.44617 9.84771C8.44617 9.67728 8.47457 9.50684 8.54559 9.33641C8.57399 9.2654 8.65921 9.22279 8.73022 9.2512C8.80123 9.2796 8.84384 9.36482 8.81543 9.43583C8.75862 9.56365 8.74442 9.70568 8.74442 9.8335C8.74442 10.4442 9.24151 10.9413 9.85222 10.9413C10.4629 10.9413 10.96 10.4442 10.96 9.8335C10.96 9.22279 10.4629 8.7257 9.85222 8.7257C9.7244 8.7257 9.59658 8.75411 9.46875 8.79671C9.39774 8.82512 9.31252 8.78251 9.28412 8.7115C9.25571 8.64049 9.29832 8.55527 9.36933 8.52687C9.52556 8.47006 9.68179 8.44165 9.85222 8.44165C10.6192 8.44165 11.2441 9.06656 11.2441 9.8335C11.2441 10.6004 10.605 11.2396 9.83802 11.2396Z" fill="black"/>
<path d="M9.83776 9.9756C9.79515 9.9756 9.76675 9.96139 9.73834 9.93299L5.19352 5.38817C5.13671 5.33136 5.13671 5.24615 5.19352 5.18934C5.25033 5.13253 5.33554 5.13253 5.39235 5.18934L9.93718 9.73415C9.99399 9.79096 9.99399 9.87618 9.93718 9.93299C9.92298 9.96139 9.88037 9.9756 9.83776 9.9756Z" fill="black"/>
<path d="M3.6883 6.01307C3.64569 6.01307 3.61728 5.99886 3.58888 5.97046L0.0524344 2.43402C0.0240292 2.40561 0.00982666 2.3488 0.00982666 2.30619C0.0240292 2.26358 0.0524344 2.22098 0.0950422 2.20677L1.69993 1.62447C1.75674 1.61027 1.81355 1.62447 1.85616 1.65287L5.39261 5.18932C5.42101 5.21772 5.43521 5.27453 5.43521 5.31714C5.42101 5.35975 5.39261 5.40236 5.35 5.41656L3.74511 5.99886C3.7167 6.01307 3.7025 6.01307 3.6883 6.01307ZM0.407499 2.39141L3.7167 5.70061L5.03754 5.21772L1.72834 1.90852L0.407499 2.39141Z" fill="black"/>
<path d="M5.293 5.43071C5.25039 5.43071 5.22198 5.41651 5.19358 5.38811L1.65714 1.85166C1.61453 1.80905 1.60033 1.75224 1.62873 1.69543L2.21104 0.0905415C2.22524 0.0479337 2.26785 0.00532597 2.31045 0.00532597C2.35306 -0.00887662 2.40987 0.00532597 2.43828 0.0479337L5.97472 3.58438C6.01733 3.62698 6.03153 3.6838 6.00313 3.74061L5.42082 5.3455C5.40662 5.38811 5.36401 5.43071 5.3214 5.43071C5.3214 5.43071 5.3072 5.43071 5.293 5.43071ZM1.92698 1.70964L5.23619 5.01884L5.71907 3.698L2.40987 0.388796L1.92698 1.70964Z" fill="black"/>
</g>
<defs>
<clipPath id="clip0">
<rect width="18" height="18" fill="white"/>
</clipPath>
</defs>
</svg>
