<svg width="57" height="57" viewBox="0 0 57 57" fill="none" xmlns="http://www.w3.org/2000/svg">
<path d="M49.6668 27.3334H45.6668V16.6667C45.6668 13.7334 43.2668 11.3334 40.3335 11.3334H29.6668V7.33342C29.6668 3.65341 26.6802 0.666748 23.0002 0.666748C19.3202 0.666748 16.3335 3.65341 16.3335 7.33342V11.3334H5.66683C2.7335 11.3334 0.360163 13.7334 0.360163 16.6667V26.8001H4.3335C8.30683 26.8001 11.5335 30.0267 11.5335 34.0001C11.5335 37.9734 8.30683 41.2001 4.3335 41.2001H0.333496V51.3334C0.333496 54.2668 2.7335 56.6667 5.66683 56.6667H15.8002V52.6667C15.8002 48.6934 19.0268 45.4667 23.0002 45.4667C26.9735 45.4667 30.2002 48.6934 30.2002 52.6667V56.6667H40.3335C43.2668 56.6667 45.6668 54.2668 45.6668 51.3334V40.6667H49.6668C53.3468 40.6667 56.3335 37.6801 56.3335 34.0001C56.3335 30.3201 53.3468 27.3334 49.6668 27.3334Z" fill="black"/>
</svg>
