<svg width="89" height="111" viewBox="0 0 89 111" fill="none" xmlns="http://www.w3.org/2000/svg">
<path d="M86.4715 34.3883L44.8541 15.0599C44.6681 14.9735 44.4533 14.9735 44.2673 15.0599L2.65058 34.3883C2.40531 34.5022 2.24851 34.7475 2.24869 35.0173C2.24869 35.2872 2.40565 35.5325 2.65075 35.6462L19.1356 43.2952V66.1934C19.1356 66.4491 19.2764 66.6837 19.502 66.8046C28.3259 71.5311 37.0816 73.9275 45.5256 73.9275C45.5274 73.9275 45.5291 73.9275 45.5307 73.9275C45.5326 73.9275 45.5343 73.9275 45.5359 73.9275C45.7137 73.9275 45.8924 73.9265 46.0701 73.9242C46.1158 73.9237 46.1611 73.922 46.2069 73.9213C46.3171 73.9195 46.4271 73.9171 46.5371 73.9145C46.6929 73.9109 46.8486 73.9072 47.0044 73.902C47.1024 73.8987 47.2008 73.8947 47.299 73.8909C47.4661 73.8843 47.633 73.8772 47.8 73.8687C47.8895 73.8642 47.9789 73.8588 48.0686 73.8538C48.2434 73.8438 48.4181 73.8334 48.593 73.8212C48.6763 73.8155 48.7592 73.8092 48.8424 73.803C49.0232 73.7896 49.2038 73.7754 49.3844 73.7596C49.4628 73.7529 49.5412 73.7458 49.6196 73.7385C49.8044 73.7215 49.9894 73.7036 50.174 73.6842C50.2491 73.6764 50.324 73.6682 50.3989 73.6599C50.5866 73.6395 50.7742 73.6179 50.9616 73.5951C51.0348 73.586 51.1079 73.5768 51.1811 73.5675C51.3697 73.5435 51.5585 73.5186 51.7471 73.492C51.8194 73.4818 51.8916 73.4716 51.9639 73.461C52.153 73.4338 52.342 73.4051 52.5311 73.3753C52.6034 73.364 52.6757 73.3524 52.748 73.3406C52.9361 73.3101 53.124 73.2784 53.3119 73.2454C53.3856 73.2324 53.4593 73.2194 53.5328 73.206C53.7192 73.1726 53.9055 73.1375 54.0917 73.1014C54.167 73.0871 54.2419 73.0725 54.3172 73.0576C54.5014 73.021 54.6857 72.9832 54.8699 72.9445C54.9469 72.9282 55.0241 72.9119 55.1013 72.8952C55.2831 72.8559 55.465 72.8153 55.6466 72.7738C55.7259 72.7558 55.805 72.7377 55.884 72.7192C56.0634 72.6774 56.2428 72.634 56.4222 72.5898C56.5037 72.5697 56.5851 72.5499 56.6665 72.5293C56.8427 72.4847 57.019 72.4389 57.1952 72.3924C57.2794 72.3702 57.3638 72.348 57.448 72.3253C57.6211 72.2785 57.7942 72.2304 57.9672 72.1817C58.0541 72.1571 58.141 72.1328 58.2279 72.1078C58.3981 72.0587 58.568 72.0084 58.738 71.9575C58.8277 71.9307 58.9172 71.9039 59.0069 71.8765C59.1741 71.8253 59.3413 71.7727 59.5084 71.7197C59.6001 71.6905 59.6921 71.6616 59.7841 71.6319C59.9478 71.5787 60.1117 71.524 60.2755 71.4692C60.3706 71.4371 60.4658 71.4057 60.5609 71.3731C60.7212 71.3183 60.8813 71.2618 61.0415 71.2052C61.1394 71.1707 61.2374 71.1366 61.3353 71.101C61.4926 71.0445 61.6499 70.986 61.8071 70.9276C61.9075 70.8903 62.0078 70.8535 62.1081 70.8155C62.2632 70.7569 62.4179 70.6966 62.5728 70.6364C62.6748 70.5967 62.7769 70.5575 62.8787 70.5171C63.0317 70.4563 63.1847 70.3939 63.3375 70.3316C63.4412 70.2893 63.5448 70.2477 63.6486 70.2047C63.7997 70.1421 63.9505 70.0776 64.1014 70.0132C64.2064 69.9686 64.3111 69.9246 64.4159 69.8793C64.5655 69.8145 64.715 69.7477 64.8644 69.6813C64.9702 69.6343 65.0764 69.5878 65.1823 69.5401C65.3304 69.4731 65.4783 69.4043 65.6262 69.3358C65.7332 69.2863 65.8401 69.2378 65.947 69.1875C66.0945 69.1181 66.2419 69.0466 66.3895 68.9755C66.4961 68.9242 66.603 68.8737 66.7095 68.8215C66.8576 68.7492 67.0054 68.6748 67.1533 68.6009C67.259 68.548 67.3651 68.4962 67.4707 68.4424C67.622 68.3657 67.7729 68.2868 67.9239 68.2083C68.0258 68.1554 68.1276 68.1035 68.2295 68.0501C68.3866 67.9674 68.5436 67.8824 68.7006 67.7981C68.7962 67.7466 68.892 67.6963 68.9874 67.6441C69.1572 67.5514 69.3267 67.4566 69.4962 67.362C69.5788 67.3159 69.6611 67.2712 69.7437 67.2247C69.9952 67.0828 70.2466 66.9387 70.4976 66.7923C70.7109 66.668 70.842 66.4401 70.842 66.1934L70.8421 42.8947L78.0988 39.5324V57.7049C76.6395 58.0521 75.5501 59.3603 75.5501 60.9206C75.5501 62.7455 77.0384 64.2305 78.8676 64.2305C80.6963 64.2305 82.1839 62.7455 82.1839 60.9206C82.1839 59.3081 81.0213 57.9633 79.4894 57.6719V38.8878L86.4712 35.6462C86.7163 35.5325 86.8733 35.287 86.8733 35.0173C86.8734 34.7477 86.7166 34.5022 86.4715 34.3883ZM45.5258 72.5404C37.4299 72.5404 29.0213 70.2654 20.5264 65.7774V61.5646C25.4511 64.1918 30.397 66.1065 35.2301 67.2543C35.2842 67.2672 35.3384 67.2733 35.3916 67.2733C35.7063 67.2733 35.9915 67.0587 36.0675 66.7399C36.1565 66.3672 35.9256 65.9931 35.5521 65.9045C30.7777 64.7711 25.8836 62.8678 21.006 60.248C20.8532 60.166 20.6837 60.1498 20.5264 60.1847V43.9409L44.2671 54.9651C44.3601 55.0083 44.4602 55.0298 44.5605 55.0298C44.6608 55.0298 44.761 55.0081 44.854 54.9649L69.4513 43.5404V65.794C61.655 70.2708 53.6074 72.5404 45.5258 72.5404ZM80.7934 60.9208C80.7934 61.9806 79.9295 62.8431 78.8678 62.8431C77.8053 62.8431 76.9409 61.9806 76.9409 60.9208C76.9409 59.8612 77.8053 58.9992 78.8678 58.9992C79.9295 58.9992 80.7934 59.8612 80.7934 60.9208ZM78.6778 37.7344L48.8025 34.3919C48.4983 32.3282 46.7124 30.7388 44.5607 30.7388C42.1967 30.7388 40.2734 32.6582 40.2734 35.0175C40.2734 37.3763 42.1967 39.2952 44.5607 39.2952C46.6621 39.2952 48.4141 37.7788 48.7781 35.7855L76.2508 38.8592L69.8431 41.8281L44.5607 53.571L20.1245 42.2238C20.1243 42.2238 20.1241 42.2239 20.1241 42.2237L4.59259 35.017L44.5609 16.454L84.5304 35.0172L78.6778 37.7344ZM47.4583 35.0173C47.4583 36.6109 46.1584 37.9075 44.5609 37.9075C42.9638 37.9075 41.6642 36.6109 41.6642 35.0173C41.6642 33.4231 42.9638 32.1261 44.5609 32.1261C46.1584 32.1261 47.4583 33.4231 47.4583 35.0173Z" fill="#F7F7F7" stroke="#F7F7F7"/>
<path d="M78.8567 64.728C78.8544 64.728 78.8521 64.728 78.85 64.728C78.4659 64.7317 78.1577 65.0451 78.1612 65.4282L78.1926 68.7629C78.1963 69.1439 78.5069 69.4502 78.8878 69.4502C78.89 69.4502 78.8923 69.4502 78.8944 69.4502C79.2785 69.4466 79.5867 69.1332 79.5833 68.7501L79.5518 65.4154C79.5483 65.0343 79.2377 64.728 78.8567 64.728Z" fill="#F7F7F7" stroke="#F7F7F7"/>
<path d="M82.5185 63.5731C82.2447 63.3048 81.8046 63.3083 81.5354 63.582C81.2663 63.8551 81.2703 64.2944 81.5442 64.5629L83.9257 66.8972C84.0609 67.0299 84.237 67.096 84.4129 67.096C84.5928 67.096 84.7727 67.0268 84.909 66.8884C85.1781 66.6152 85.1741 66.1759 84.9001 65.9074L82.5185 63.5731Z" fill="#F7F7F7" stroke="#F7F7F7"/>
<path d="M75.1541 63.6658L72.8248 66.0419C72.5562 66.3157 72.5611 66.7549 72.8358 67.0228C72.971 67.155 73.1466 67.2207 73.3219 67.2207C73.5024 67.2207 73.6828 67.151 73.8189 67.0121L76.1482 64.636C76.4168 64.3621 76.4119 63.923 76.1373 63.655C75.8628 63.3869 75.4225 63.3917 75.1541 63.6658Z" fill="#F7F7F7" stroke="#F7F7F7"/>
<path d="M44.3544 67.1676C42.8654 67.118 41.3131 66.9666 39.7407 66.7177C39.3617 66.6574 39.0054 66.916 38.9451 67.2941C38.8849 67.6727 39.1436 68.0279 39.5229 68.0879C41.1518 68.3456 42.7616 68.5027 44.3078 68.5543C44.3157 68.5544 44.3237 68.5546 44.3315 68.5546C44.7047 68.5546 45.0134 68.2591 45.0259 67.8841C45.039 67.5011 44.7381 67.1805 44.3544 67.1676Z" fill="#F7F7F7" stroke="#F7F7F7"/>
</svg>
