<svg width="51" height="64" viewBox="0 0 51 64" fill="none" xmlns="http://www.w3.org/2000/svg">
    <path d="M45.9 19.84H28.6875V5.11998C28.6875 4.76798 28.4006 4.47998 28.05 4.47998H8.92499C8.57437 4.47998 8.28749 4.76798 8.28749 5.11998V45.44H5.09999C4.74937 45.44 4.46249 45.728 4.46249 46.08C4.46249 46.432 4.74937 46.72 5.09999 46.72H8.92499H28.05H43.35H45.9C46.2506 46.72 46.5375 46.432 46.5375 46.08C46.5375 45.728 46.2506 45.44 45.9 45.44H43.9875V24.32H45.9C46.2506 24.32 46.5375 24.032 46.5375 23.68V20.48C46.5375 20.128 46.2506 19.84 45.9 19.84ZM9.56249 5.75998H27.4125V20.48V23.68V45.44H9.56249V5.75998ZM42.7125 45.44H28.6875V24.32H42.7125V45.44ZM45.2625 23.04H43.35H28.6875V21.12H45.2625V23.04Z" fill="#232323" />
    <path d="M31.2375 28.1601H40.1625C40.5131 28.1601 40.8 27.8721 40.8 27.5201C40.8 27.1681 40.5131 26.8801 40.1625 26.8801H31.2375C30.8869 26.8801 30.6 27.1681 30.6 27.5201C30.6 27.8721 30.8869 28.1601 31.2375 28.1601Z" fill="#232323" />
    <path d="M31.2375 32H40.1625C40.5131 32 40.8 31.712 40.8 31.36C40.8 31.008 40.5131 30.72 40.1625 30.72H31.2375C30.8869 30.72 30.6 31.008 30.6 31.36C30.6 31.712 30.8869 32 31.2375 32Z" fill="#232323" />
    <path d="M31.2375 35.8401H40.1625C40.5131 35.8401 40.8 35.5521 40.8 35.2001C40.8 34.8481 40.5131 34.5601 40.1625 34.5601H31.2375C30.8869 34.5601 30.6 34.8481 30.6 35.2001C30.6 35.5521 30.8869 35.8401 31.2375 35.8401Z" fill="#232323" />
    <path d="M31.2375 39.6801H40.1625C40.5131 39.6801 40.8 39.3921 40.8 39.0401C40.8 38.6881 40.5131 38.4001 40.1625 38.4001H31.2375C30.8869 38.4001 30.6 38.6881 30.6 39.0401C30.6 39.3921 30.8869 39.6801 31.2375 39.6801Z" fill="#232323" />
    <path d="M31.2375 43.52H40.1625C40.5131 43.52 40.8 43.232 40.8 42.88C40.8 42.528 40.5131 42.24 40.1625 42.24H31.2375C30.8869 42.24 30.6 42.528 30.6 42.88C30.6 43.232 30.8869 43.52 31.2375 43.52Z" fill="#232323" />
    <path d="M16.0075 7.13574H12.1825C11.8319 7.13574 11.545 7.42374 11.545 7.77574V11.6157C11.545 11.9677 11.8319 12.2557 12.1825 12.2557H16.0075C16.3581 12.2557 16.645 11.9677 16.645 11.6157V7.77574C16.645 7.42374 16.3581 7.13574 16.0075 7.13574ZM15.37 10.9757H12.82V8.41574H15.37V10.9757Z" fill="#232323" />
    <path d="M24.295 7.13574H20.47C20.1194 7.13574 19.8325 7.42374 19.8325 7.77574V11.6157C19.8325 11.9677 20.1194 12.2557 20.47 12.2557H24.295C24.6456 12.2557 24.9325 11.9677 24.9325 11.6157V7.77574C24.9325 7.42374 24.6456 7.13574 24.295 7.13574ZM23.6575 10.9757H21.1075V8.41574H23.6575V10.9757Z" fill="#232323" />
    <path d="M16.0075 13.5359H12.1825C11.8319 13.5359 11.545 13.8239 11.545 14.1759V18.0159C11.545 18.3679 11.8319 18.6559 12.1825 18.6559H16.0075C16.3581 18.6559 16.645 18.3679 16.645 18.0159V14.1759C16.645 13.8239 16.3581 13.5359 16.0075 13.5359ZM15.37 17.3759H12.82V14.8159H15.37V17.3759Z" fill="#232323" />
    <path d="M24.295 13.5359H20.47C20.1194 13.5359 19.8325 13.8239 19.8325 14.1759V18.0159C19.8325 18.3679 20.1194 18.6559 20.47 18.6559H24.295C24.6456 18.6559 24.9325 18.3679 24.9325 18.0159V14.1759C24.9325 13.8239 24.6456 13.5359 24.295 13.5359ZM23.6575 17.3759H21.1075V14.8159H23.6575V17.3759Z" fill="#232323" />
    <path d="M16.0075 19.9358H12.1825C11.8319 19.9358 11.545 20.2238 11.545 20.5758V24.4158C11.545 24.7678 11.8319 25.0558 12.1825 25.0558H16.0075C16.3581 25.0558 16.645 24.7678 16.645 24.4158V20.5758C16.645 20.2238 16.3581 19.9358 16.0075 19.9358ZM15.37 23.7758H12.82V21.2158H15.37V23.7758Z" fill="#232323" />
    <path d="M24.295 19.9358H20.47C20.1194 19.9358 19.8325 20.2238 19.8325 20.5758V24.4158C19.8325 24.7678 20.1194 25.0558 20.47 25.0558H24.295C24.6456 25.0558 24.9325 24.7678 24.9325 24.4158V20.5758C24.9325 20.2238 24.6456 19.9358 24.295 19.9358ZM23.6575 23.7758H21.1075V21.2158H23.6575V23.7758Z" fill="#232323" />
    <path d="M16.0075 26.3359H12.1825C11.8319 26.3359 11.545 26.6239 11.545 26.9759V30.8159C11.545 31.1679 11.8319 31.4559 12.1825 31.4559H16.0075C16.3581 31.4559 16.645 31.1679 16.645 30.8159V26.9759C16.645 26.6239 16.3581 26.3359 16.0075 26.3359ZM15.37 30.1759H12.82V27.6159H15.37V30.1759Z" fill="#232323" />
    <path d="M24.295 26.3359H20.47C20.1194 26.3359 19.8325 26.6239 19.8325 26.9759V30.8159C19.8325 31.1679 20.1194 31.4559 20.47 31.4559H24.295C24.6456 31.4559 24.9325 31.1679 24.9325 30.8159V26.9759C24.9325 26.6239 24.6456 26.3359 24.295 26.3359ZM23.6575 30.1759H21.1075V27.6159H23.6575V30.1759Z" fill="#232323" />
    <path d="M16.0075 32.7358H12.1825C11.8319 32.7358 11.545 33.0238 11.545 33.3758V37.2158C11.545 37.5678 11.8319 37.8558 12.1825 37.8558H16.0075C16.3581 37.8558 16.645 37.5678 16.645 37.2158V33.3758C16.645 33.0238 16.3581 32.7358 16.0075 32.7358ZM15.37 36.5758H12.82V34.0158H15.37V36.5758Z" fill="#232323" />
    <path d="M24.295 32.7358H20.47C20.1194 32.7358 19.8325 33.0238 19.8325 33.3758V37.2158C19.8325 37.5678 20.1194 37.8558 20.47 37.8558H24.295C24.6456 37.8558 24.9325 37.5678 24.9325 37.2158V33.3758C24.9325 33.0238 24.6456 32.7358 24.295 32.7358ZM23.6575 36.5758H21.1075V34.0158H23.6575V36.5758Z" fill="#232323" />
</svg>
    