<svg width="20" height="21" viewBox="0 0 20 21" fill="none" xmlns="http://www.w3.org/2000/svg">
<path fill-rule="evenodd" clip-rule="evenodd" d="M9.88668 6.08897e-05C9.38715 0.00701079 8.98672 0.426858 8.99604 0.937433V9.7455L6.93895 7.6427C6.84462 7.54222 6.72919 7.46495 6.60138 7.41674C6.47357 7.36852 6.33671 7.35061 6.20114 7.36436C6.0305 7.38168 5.86827 7.4485 5.73355 7.55695C5.59883 7.66539 5.49724 7.81094 5.44075 7.97644C5.38425 8.14194 5.37522 8.3205 5.4147 8.49108C5.45418 8.66165 5.54054 8.81714 5.66359 8.93922L9.26306 12.6187C9.43159 12.7899 9.65958 12.8861 9.89722 12.8861C10.1349 12.8861 10.3629 12.7899 10.5314 12.6187L14.1291 8.93922C14.2232 8.85678 14.2997 8.75534 14.3537 8.64126C14.4077 8.52719 14.438 8.40294 14.4428 8.27632C14.4475 8.14969 14.4267 8.02343 14.3814 7.90545C14.3362 7.78746 14.2676 7.68031 14.18 7.5907C14.0923 7.5011 13.9875 7.43098 13.8721 7.38476C13.7566 7.33853 13.6331 7.31719 13.5093 7.32207C13.3854 7.32695 13.2638 7.35795 13.1522 7.41313C13.0406 7.4683 12.9414 7.54646 12.8608 7.6427L10.7967 9.75448V0.937433C10.8061 0.418866 10.394 -0.00584654 9.88668 6.08897e-05ZM2.70356 11.051C2.53652 11.051 2.37277 11.0985 2.23067 11.1883C2.08856 11.278 1.97372 11.4065 1.89899 11.5592L0.144056 15.1471C0.0503317 15.2953 0.000324968 15.468 6.53892e-06 15.6445V19.3239C-0.000446053 19.4453 0.0226002 19.5655 0.067817 19.6777C0.113034 19.7899 0.179527 19.8918 0.263463 19.9776C0.347399 20.0634 0.447118 20.1314 0.556872 20.1776C0.666627 20.2238 0.784245 20.2474 0.902948 20.2469H18.8897C19.0084 20.2474 19.1261 20.2238 19.2358 20.1776C19.3456 20.1314 19.4453 20.0634 19.5292 19.9776C19.6132 19.8918 19.6797 19.7899 19.7249 19.6777C19.7701 19.5655 19.7931 19.4453 19.7927 19.3239V15.6445C19.7917 15.475 19.7449 15.309 19.6574 15.165L17.8937 11.5592C17.8191 11.4067 17.7045 11.2785 17.5628 11.1888C17.421 11.099 17.2576 11.0513 17.0909 11.051H15.2903C15.1705 11.0482 15.0513 11.07 14.9398 11.115C14.8284 11.1599 14.7268 11.2272 14.6411 11.3129C14.5554 11.3985 14.4873 11.5008 14.4409 11.6137C14.3944 11.7266 14.3704 11.8479 14.3704 11.9704C14.3704 12.0929 14.3944 12.2142 14.4409 12.3271C14.4873 12.44 14.5554 12.5423 14.6411 12.628C14.7268 12.7136 14.8284 12.7809 14.9398 12.8259C15.0513 12.8708 15.1705 12.8926 15.2903 12.8898H16.5393L17.4352 14.7287H2.35749L3.26043 12.8898H4.50241C4.62223 12.8926 4.74137 12.8708 4.85285 12.8259C4.96433 12.7809 5.06589 12.7136 5.15158 12.628C5.23727 12.5423 5.30535 12.44 5.35183 12.3271C5.39832 12.2142 5.42226 12.0929 5.42226 11.9704C5.42226 11.8479 5.39832 11.7266 5.35183 11.6137C5.30535 11.5008 5.23727 11.3985 5.15158 11.3129C5.06589 11.2272 4.96433 11.1599 4.85285 11.115C4.74137 11.07 4.62223 11.0482 4.50241 11.051H2.70356ZM1.79886 16.5675H17.9938V18.4081H1.79886V16.5675Z" fill="#333333"/>
</svg>
