<svg width="44" height="54" viewBox="0 0 44 54" fill="none" xmlns="http://www.w3.org/2000/svg">
    <path d="M21.411 6.3445C21.2742 6.3435 21.1426 6.39591 21.0451 6.49021C20.9476 6.5845 20.8923 6.71294 20.8913 6.84729C20.8903 6.98163 20.9436 7.11087 21.0397 7.20657C21.1357 7.30227 21.2665 7.35659 21.4034 7.35759L27.8396 7.40433C28.3155 7.41202 28.7689 7.60469 29.1004 7.9401C29.4319 8.27551 29.6144 8.72628 29.6078 9.19359C29.6064 9.2599 29.6185 9.32582 29.6433 9.3875C29.6681 9.44918 29.7052 9.50538 29.7524 9.55282C29.7996 9.60026 29.856 9.63799 29.9182 9.66379C29.9805 9.6896 30.0473 9.70297 30.1149 9.70313H30.1235C30.2582 9.70428 30.388 9.65315 30.4845 9.56086C30.5811 9.46857 30.6366 9.34258 30.6391 9.21029C30.645 8.8454 30.5775 8.48294 30.4406 8.14367C30.3037 7.80439 30.0999 7.49496 29.8411 7.23306C29.5822 6.97117 29.2733 6.76197 28.932 6.61742C28.5907 6.47286 28.2237 6.39581 27.852 6.39065L21.411 6.3445Z" fill="#F7F7F7" />
    <path d="M29.8203 12.9459V14.6809H35.6641V12.9459C35.6641 12.5988 35.413 12.3184 35.0594 12.3184H30.4319C30.3494 12.3188 30.2678 12.3356 30.192 12.3676C30.1162 12.3997 30.0477 12.4463 29.9907 12.5049C29.9336 12.5634 29.8891 12.6327 29.8599 12.7084C29.8306 12.7842 29.8171 12.865 29.8203 12.9459Z" fill="#F7F7F7" />
    <path d="M28.7633 28.8982L32.2266 27.0624V20.0811H26.8984V27.0975C27.7024 27.4835 28.3568 28.1155 28.7633 28.8982Z" fill="#F7F7F7" />
    <path d="M34.8047 5.99023H30.6797V8.77461H34.8047V5.99023Z" fill="#F7F7F7" />
    <path d="M33.6875 9.78711H31.7969V11.3059H33.6875V9.78711Z" fill="#F7F7F7" />
    <path d="M32.2266 31.739L30.6413 32.8213H32.2266V31.739Z" fill="#F7F7F7" />
    <path d="M35.9635 15.6932H29.5281C29.1843 15.6906 28.8434 15.7547 28.5249 15.8819C28.2065 16.0091 27.9167 16.1968 27.6724 16.4342C27.428 16.6717 27.2338 16.9542 27.101 17.2655C26.9682 17.5769 26.8994 17.9109 26.8984 18.2485V19.0682H32.7457C32.8838 19.072 33.0148 19.1288 33.1106 19.2265C33.2063 19.3242 33.2592 19.4549 33.2578 19.5905V22.7402L33.6847 22.8595C34.3462 23.0459 35.0552 22.9776 35.6672 22.6685C36.5025 22.2464 37.4694 22.1497 38.3743 22.3976L38.5857 22.456V18.2485C38.5855 17.9114 38.5174 17.5776 38.3854 17.2664C38.2533 16.9552 38.0598 16.6727 37.8161 16.4352C37.5724 16.1977 37.2833 16.0099 36.9653 15.8825C36.6474 15.7552 36.3069 15.6908 35.9635 15.6932Z" fill="#F7F7F7" />
    <path d="M36.1399 23.5702C35.2944 23.9968 34.3151 24.0911 33.4013 23.8338L33.2577 23.794V26.5166L33.7077 26.2794C34.4079 25.9072 35.2273 25.8146 35.9953 26.0208C36.7633 26.227 37.4207 26.7161 37.8306 27.3863C37.898 27.4971 37.9199 27.629 37.8917 27.7551C37.8636 27.8811 37.7874 27.9919 37.6789 28.0648L33.2577 31.0446V33.3172C33.2589 33.4523 33.2059 33.5823 33.11 33.6792C33.0141 33.7761 32.8832 33.8319 32.7456 33.8346H29.1392L27.4648 34.9624C27.7114 35.2678 28.025 35.5147 28.3822 35.6847C28.7394 35.8546 29.1311 35.9432 29.5281 35.944H35.9637C36.6611 35.9407 37.3287 35.6662 37.8202 35.1805C38.3117 34.6948 38.587 34.0376 38.5859 33.353V23.5076L38.0995 23.3739C37.4445 23.1943 36.7445 23.2644 36.1399 23.5702Z" fill="#F7F7F7" />
    <path d="M34.1989 27.1701L29.1156 29.8624L29.1039 29.9146C29.1448 30.1395 29.1653 30.3676 29.1652 30.596C29.1652 30.6644 29.1511 30.7321 29.1237 30.795C29.0963 30.8579 29.0562 30.9147 29.0058 30.962C28.9554 31.0092 28.8958 31.046 28.8306 31.07C28.7653 31.094 28.6958 31.1048 28.6262 31.1017L24.7031 30.9275C23.5541 30.8768 22.4028 30.9291 21.2635 31.0836L21.16 31.0975C21.0245 31.1158 20.8871 31.0806 20.7781 30.9995C20.669 30.9184 20.5973 30.7982 20.5786 30.6651C20.5599 30.5321 20.5958 30.3972 20.6784 30.2902C20.7609 30.1832 20.8834 30.1127 21.0189 30.0943L21.1221 30.0802C22.3237 29.917 23.5381 29.8617 24.75 29.9151L28.0613 30.0614C28.0514 30.0178 28.0482 29.9729 28.052 29.9283C27.8968 29.3088 27.5344 28.7584 27.0228 28.3651C26.5112 27.9718 25.88 27.7585 25.2302 27.7592H20.6309C19.7283 27.7555 18.838 27.5528 18.0259 27.1659L17.5516 26.9389C16.3751 26.3763 15.0633 26.1434 13.7607 26.266C12.4581 26.3885 11.2152 26.8617 10.1689 27.6334L5.4071 31.7942L9.00332 37.2309L10.4551 34.748C10.7642 34.2157 11.24 33.7954 11.8117 33.5497C12.3835 33.304 13.0208 33.246 13.6288 33.3843L13.6534 33.3902L21.5157 35.3296C23.0375 35.5933 24.6051 35.378 25.9948 34.7145L36.6511 27.5311C36.3375 27.2179 35.9288 27.0134 35.4864 26.9482C35.0441 26.8831 34.5922 26.961 34.1989 27.1701Z" fill="#F7F7F7" />
    <path d="M19.355 14.4619C19.2375 14.7098 19.1855 14.9828 19.2038 15.2556C19.2222 15.5284 19.3103 15.7923 19.46 16.0228C19.6097 16.2534 19.8161 16.4431 20.0603 16.5746C20.3045 16.7061 20.5785 16.775 20.8569 16.775C21.1354 16.775 21.4094 16.7061 21.6536 16.5746C21.8977 16.4431 22.1042 16.2534 22.2539 16.0228C22.4036 15.7923 22.4917 15.5284 22.51 15.2556C22.5284 14.9828 22.4764 14.7098 22.3589 14.4619L20.8571 12.1248L19.355 14.4619Z" fill="#F7F7F7" />
</svg>
    