<svg width="24" height="24" viewBox="0 0 24 24" fill="none" xmlns="http://www.w3.org/2000/svg">
<circle cx="12" cy="12" r="12" fill="none"/>
<path d="M12.5015 8.16696C10.6569 8.16696 9.16916 9.65508 9.16916 11.5C9.16916 13.3449 10.6569 14.833 12.5015 14.833C14.346 14.833 15.8337 13.3449 15.8337 11.5C15.8337 9.65508 14.346 8.16696 12.5015 8.16696ZM12.5015 13.6669C11.3095 13.6669 10.335 12.6951 10.335 11.5C10.335 10.3049 11.3066 9.33309 12.5015 9.33309C13.6963 9.33309 14.6679 10.3049 14.6679 11.5C14.6679 12.6951 13.6934 13.6669 12.5015 13.6669V13.6669ZM16.7473 8.03063C16.7473 8.46285 16.3993 8.80804 15.9701 8.80804C15.5379 8.80804 15.1928 8.45995 15.1928 8.03063C15.1928 7.60131 15.5408 7.25321 15.9701 7.25321C16.3993 7.25321 16.7473 7.60131 16.7473 8.03063ZM18.9543 8.81965C18.905 7.77826 18.6672 6.8558 17.9045 6.09578C17.1446 5.33577 16.2224 5.0979 15.1812 5.04569C14.1081 4.98477 10.8919 4.98477 9.8188 5.04569C8.78054 5.095 7.85828 5.33287 7.09554 6.09288C6.33279 6.8529 6.09788 7.77535 6.04568 8.81675C5.98477 9.89005 5.98477 13.1071 6.04568 14.1804C6.09498 15.2217 6.33279 16.1442 7.09554 16.9042C7.85828 17.6642 8.77764 17.9021 9.8188 17.9543C10.8919 18.0152 14.1081 18.0152 15.1812 17.9543C16.2224 17.905 17.1446 17.6671 17.9045 16.9042C18.6643 16.1442 18.9021 15.2217 18.9543 14.1804C19.0152 13.1071 19.0152 9.89295 18.9543 8.81965V8.81965ZM17.568 15.332C17.3418 15.9005 16.9039 16.3386 16.3326 16.5677C15.477 16.9071 13.4469 16.8288 12.5015 16.8288C11.556 16.8288 9.52298 16.9042 8.67033 16.5677C8.1019 16.3415 7.66397 15.9034 7.43486 15.332C7.09554 14.4762 7.17384 12.4457 7.17384 11.5C7.17384 10.5543 7.09844 8.52086 7.43486 7.66802C7.66107 7.09946 8.099 6.66144 8.67033 6.43228C9.52588 6.09288 11.556 6.1712 12.5015 6.1712C13.4469 6.1712 15.4799 6.09578 16.3326 6.43228C16.901 6.65854 17.3389 7.09656 17.568 7.66802C17.9074 8.52376 17.8291 10.5543 17.8291 11.5C17.8291 12.4457 17.9074 14.4791 17.568 15.332Z" fill="white"/>
</svg>
