<svg width="60" height="60" viewBox="0 0 60 60" fill="none" xmlns="http://www.w3.org/2000/svg">
<path d="M51.25 27.5H47.5V17.5C47.5 14.75 45.25 12.5 42.5 12.5H32.5V8.75C32.5 5.3 29.7 2.5 26.25 2.5C22.8 2.5 20 5.3 20 8.75V12.5H10C7.25 12.5 5.025 14.75 5.025 17.5V27H8.75C12.475 27 15.5 30.025 15.5 33.75C15.5 37.475 12.475 40.5 8.75 40.5H5V50C5 52.75 7.25 55 10 55H19.5V51.25C19.5 47.525 22.525 44.5 26.25 44.5C29.975 44.5 33 47.525 33 51.25V55H42.5C45.25 55 47.5 52.75 47.5 50V40H51.25C54.7 40 57.5 37.2 57.5 33.75C57.5 30.3 54.7 27.5 51.25 27.5Z" fill="#f7f7f7"/>
</svg>
