<svg width="11" height="11" viewBox="0 0 11 11" fill="none" xmlns="http://www.w3.org/2000/svg">
<path d="M2.57789 10.5515V3.80151H0.324737V10.5515H2.57789ZM1.45425 2.87573C2.23668 2.87573 2.72496 2.36011 2.72496 1.70972C2.7132 1.04761 2.23668 0.543701 1.4719 0.543701C0.701243 0.543701 0.195312 1.04761 0.195312 1.71558C0.195312 2.36011 0.683594 2.88159 1.44249 2.88159H1.45425V2.87573ZM3.82507 10.5515H6.07822V6.7898C6.07822 6.58472 6.09587 6.37964 6.1547 6.23902C6.31354 5.84058 6.68416 5.4187 7.30775 5.4187C8.12547 5.4187 8.44903 6.0398 8.44903 6.94214V10.5574H10.7081V6.69019C10.7081 4.61597 9.5962 3.64331 8.11959 3.64331C7.70578 3.62739 7.2956 3.72567 6.93433 3.9273C6.57306 4.12892 6.27475 4.42605 6.07234 4.78589H6.0841V3.80151H3.82507C3.85448 4.43433 3.82507 10.5515 3.82507 10.5515Z" fill="white"/>
</svg>
