<svg width="11" height="11" viewBox="0 0 11 11" fill="none" xmlns="http://www.w3.org/2000/svg">
<path d="M0.0231576 2.15824C0.0412072 2.00243 0.110397 1.85608 0.229439 1.71873L1.87969 0.0705896C2.00818 -0.0392865 2.10445 -0.0208307 2.16848 0.125528L3.50243 2.62521C3.57592 2.77157 3.55271 2.91363 3.43367 3.05098L2.82858 3.6553C2.71857 3.76517 2.65453 3.90724 2.63605 4.08107C2.63605 4.35576 2.7783 4.70813 3.06237 5.13863C3.34643 5.56912 3.6262 5.93523 3.90124 6.23782L4.32756 6.67689C4.45605 6.80522 4.62065 6.96317 4.82306 7.15073C5.02462 7.33829 5.35682 7.58551 5.81966 7.8924C6.2825 8.19928 6.64736 8.3525 6.91295 8.3525C7.087 8.3525 7.23397 8.29284 7.35302 8.17395L8.06855 7.45976C8.19705 7.33143 8.33414 7.31297 8.48069 7.40482L10.8877 8.81948C10.9518 8.85639 10.9887 8.90403 10.9977 8.96369C11.0068 9.02335 10.9887 9.07614 10.9427 9.12163L9.29249 10.7698C9.15497 10.8887 9.00799 10.9578 8.85285 10.9754C8.40333 11.0397 7.89665 10.9779 7.33282 10.7899C6.76898 10.602 6.24683 10.3526 5.76551 10.0414C5.28419 9.73024 4.83724 9.41435 4.42468 9.09417C4.01212 8.77355 3.68207 8.49886 3.43453 8.27009L3.07698 7.9263C2.98544 7.83488 2.86382 7.70913 2.71255 7.5486C2.56128 7.38808 2.29698 7.07305 1.92094 6.60135C1.54491 6.12966 1.21959 5.66955 0.944547 5.22103C0.669505 4.77251 0.431423 4.26176 0.229439 3.68963C0.0278849 3.11751 -0.0408755 2.60675 0.0231576 2.15824Z" fill="white"/>
</svg>
