<svg width="24" height="24" viewBox="0 0 24 24" fill="none" xmlns="http://www.w3.org/2000/svg">
<path d="M7.02316 9.15824C7.04121 9.00243 7.1104 8.85608 7.22944 8.71873L8.87969 7.07059C9.00818 6.96071 9.10445 6.97917 9.16848 7.12553L10.5024 9.62521C10.5759 9.77157 10.5527 9.91363 10.4337 10.051L9.82858 10.6553C9.71857 10.7652 9.65453 10.9072 9.63605 11.0811C9.63605 11.3558 9.7783 11.7081 10.0624 12.1386C10.3464 12.5691 10.6262 12.9352 10.9012 13.2378L11.3276 13.6769C11.456 13.8052 11.6207 13.9632 11.8231 14.1507C12.0246 14.3383 12.3568 14.5855 12.8197 14.8924C13.2825 15.1993 13.6474 15.3525 13.913 15.3525C14.087 15.3525 14.234 15.2928 14.353 15.174L15.0686 14.4598C15.1971 14.3314 15.3341 14.313 15.4807 14.4048L17.8877 15.8195C17.9518 15.8564 17.9887 15.904 17.9977 15.9637C18.0068 16.0233 17.9887 16.0761 17.9427 16.1216L16.2925 17.7698C16.155 17.8887 16.008 17.9578 15.8528 17.9754C15.4033 18.0397 14.8966 17.9779 14.3328 17.7899C13.769 17.602 13.2468 17.3526 12.7655 17.0414C12.2842 16.7302 11.8372 16.4143 11.4247 16.0942C11.0121 15.7735 10.6821 15.4989 10.4345 15.2701L10.077 14.9263C9.98544 14.8349 9.86382 14.7091 9.71255 14.5486C9.56128 14.3881 9.29698 14.073 8.92094 13.6013C8.54491 13.1297 8.21959 12.6696 7.94455 12.221C7.66951 11.7725 7.43142 11.2618 7.22944 10.6896C7.02788 10.1175 6.95912 9.60675 7.02316 9.15824Z" fill="white"/>
</svg>
