<svg width="18" height="19" viewBox="0 0 18 19" fill="none" xmlns="http://www.w3.org/2000/svg">
<path d="M0.152475 1.38034L6.7294 10.0413V16.3746C6.7294 16.5641 6.83766 16.7265 6.97299 16.8348L10.302 18.9188C10.3832 18.9729 10.4915 19 10.5998 19C10.681 19 10.7892 18.9729 10.8704 18.9188C11.0328 18.8105 11.1411 18.6481 11.1411 18.4587V10.0413L17.718 1.38034L17.7451 1.35328C17.9075 1.08262 17.9345 0.730769 17.7721 0.460114C17.6097 0.189459 17.312 0 17.0143 0H0.856179C0.531392 0 0.233671 0.162393 0.0983435 0.460114C-0.0369842 0.757835 -0.0369841 1.08262 0.125409 1.35328C0.125409 1.35328 0.125409 1.35328 0.152475 1.38034ZM16.5542 1.08262L10.1667 9.55413C10.0855 9.63533 10.0585 9.77066 10.0585 9.87892V17.4843L7.81202 16.0769V9.87892C7.81202 9.77066 7.78495 9.63533 7.70376 9.55413L1.28923 1.08262H16.5542Z" fill="#333333"/>
</svg>
