<svg width="68" height="85" viewBox="0 0 68 85" fill="none" xmlns="http://www.w3.org/2000/svg">
<path d="M37.4736 17.604H13.4687C13.2989 17.604 13.1414 17.5153 13.0532 17.3701C12.9654 17.2247 12.9597 17.0442 13.038 16.8936L13.3012 16.389C14.609 13.8904 15.3001 11.0795 15.3001 8.25917C15.3001 7.99094 15.5173 7.77346 15.7858 7.77346H21.0281C20.9783 7.50309 20.9531 7.22656 20.9531 6.94623C20.9531 4.45504 22.98 2.42847 25.4711 2.42847C27.9623 2.42847 29.9887 4.45504 29.9887 6.94623C29.9887 7.22656 29.9635 7.50309 29.9137 7.77346H35.156C35.4245 7.77346 35.6417 7.99094 35.6417 8.25917C35.6417 11.0788 36.3328 13.8899 37.6406 16.3882L37.9043 16.8936C37.9826 17.0442 37.9769 17.2247 37.8891 17.3701C37.8009 17.5153 37.6434 17.604 37.4736 17.604ZM14.2684 16.6325H36.6739C35.4359 14.1926 34.7495 11.4799 34.6769 8.74489H29.2843C29.1273 8.74489 28.9798 8.66876 28.8882 8.54069C28.7971 8.41262 28.7739 8.24826 28.8256 8.0998C28.9527 7.73361 29.0172 7.34561 29.0172 6.94623C29.0172 4.9908 27.4263 3.3999 25.4711 3.3999C23.5155 3.3999 21.9246 4.9908 21.9246 6.94623C21.9246 7.34561 21.9891 7.73361 22.1162 8.0998C22.1679 8.24826 22.1447 8.41262 22.0536 8.54069C21.962 8.66876 21.8145 8.74489 21.6575 8.74489H16.2649C16.1923 11.4804 15.5064 14.1926 14.2684 16.6325Z" fill="#F7F7F7" stroke="#F7F7F7"/>
<path d="M25.4715 8.99498C24.3416 8.99498 23.4229 8.07596 23.4229 6.94634C23.4229 5.81696 24.3416 4.89795 25.4715 4.89795C26.6014 4.89795 27.5201 5.81696 27.5201 6.94634C27.5201 8.07596 26.6014 8.99498 25.4715 8.99498ZM25.4715 5.86938C24.8776 5.86938 24.3943 6.35248 24.3943 6.94634C24.3943 7.54021 24.8776 8.02355 25.4715 8.02355C26.0654 8.02355 26.5487 7.54021 26.5487 6.94634C26.5487 6.35248 26.0654 5.86938 25.4715 5.86938Z" fill="#F7F7F7" stroke="#F7F7F7"/>
<path d="M45.6476 65.5712H5.29446C3.71399 65.5712 2.42856 64.2858 2.42856 62.7055V13.624C2.42856 12.0437 3.71399 10.7583 5.29446 10.7583H15.5334C15.8018 10.7583 16.0191 10.9758 16.0191 11.244C16.0191 11.5122 15.8018 11.7297 15.5334 11.7297H5.29446C4.24999 11.7297 3.39999 12.5795 3.39999 13.624V62.7055C3.39999 63.75 4.24999 64.5998 5.29446 64.5998H45.6476C46.6921 64.5998 47.5416 63.75 47.5416 62.7055V58.4895C47.5416 58.2212 47.7589 58.0037 48.0274 58.0037C48.2958 58.0037 48.5131 58.2212 48.5131 58.4895V62.7055C48.5131 64.2858 47.2276 65.5712 45.6476 65.5712Z" fill="#F7F7F7" stroke="#F7F7F7"/>
<path d="M48.0274 40.1051C47.7589 40.1051 47.5417 39.8876 47.5417 39.6194V13.624C47.5417 12.5795 46.6921 11.7297 45.6477 11.7297H35.4088C35.1403 11.7297 34.923 11.5122 34.923 11.244C34.923 10.9758 35.1403 10.7583 35.4088 10.7583H45.6477C47.2276 10.7583 48.5131 12.0437 48.5131 13.624V39.6194C48.5131 39.8876 48.2958 40.1051 48.0274 40.1051Z" fill="#F7F7F7" stroke="#F7F7F7"/>
<path d="M17.8547 28.3923H9.99222C9.72375 28.3923 9.50651 28.1748 9.50651 27.9066V20.0441C9.50651 19.7758 9.72375 19.5583 9.99222 19.5583H17.8547C18.1232 19.5583 18.3404 19.7758 18.3404 20.0441V27.9066C18.3404 28.1748 18.1232 28.3923 17.8547 28.3923ZM10.4779 27.4208H17.369V20.5298H10.4779V27.4208Z" fill="#F7F7F7" stroke="#F7F7F7"/>
<path d="M17.8547 43.0107H9.99222C9.72375 43.0107 9.50651 42.7932 9.50651 42.525V34.6625C9.50651 34.3942 9.72375 34.1768 9.99222 34.1768H17.8547C18.1232 34.1768 18.3404 34.3942 18.3404 34.6625V42.525C18.3404 42.7932 18.1232 43.0107 17.8547 43.0107ZM10.4779 42.0393H17.369V35.1482H10.4779V42.0393Z" fill="#F7F7F7" stroke="#F7F7F7"/>
<path d="M17.8547 57.6281H9.99222C9.72375 57.6281 9.50651 57.4106 9.50651 57.1424V49.2799C9.50651 49.0117 9.72375 48.7942 9.99222 48.7942H17.8547C18.1232 48.7942 18.3404 49.0117 18.3404 49.2799V57.1424C18.3404 57.4106 18.1232 57.6281 17.8547 57.6281ZM10.4779 56.6567H17.369V49.7656H10.4779V56.6567Z" fill="#F7F7F7" stroke="#F7F7F7"/>
<path d="M12.9293 25.9295C12.805 25.9295 12.6807 25.882 12.5859 25.7872L11.6372 24.8387C11.4475 24.6493 11.4475 24.3417 11.6372 24.1519C11.8269 23.9622 12.1343 23.9622 12.324 24.1519L12.9293 24.7569L15.5229 22.1631C15.7127 21.9733 16.02 21.9733 16.2098 22.1631C16.3995 22.3528 16.3995 22.6601 16.2098 22.8499L13.2727 25.7872C13.1778 25.882 13.0536 25.9295 12.9293 25.9295Z" fill="#F7F7F7" stroke="#F7F7F7"/>
<path d="M12.9293 40.5479C12.805 40.5479 12.6807 40.5004 12.5859 40.4056L11.6372 39.4572C11.4475 39.2677 11.4475 38.9601 11.6372 38.7703C11.8269 38.5806 12.1343 38.5806 12.324 38.7703L12.9293 39.3753L15.5229 36.7815C15.7127 36.5917 16.02 36.5917 16.2098 36.7815C16.3995 36.9712 16.3995 37.2786 16.2098 37.4683L13.2727 40.4056C13.1778 40.5004 13.0536 40.5479 12.9293 40.5479Z" fill="#F7F7F7" stroke="#F7F7F7"/>
<path d="M12.9293 55.1656C12.805 55.1656 12.6807 55.1181 12.5859 55.0233L11.6372 54.0748C11.4475 53.8853 11.4475 53.5777 11.6372 53.388C11.8269 53.1983 12.1343 53.1983 12.324 53.388L12.9293 53.993L15.5229 51.3994C15.7127 51.2096 16.02 51.2096 16.2098 51.3994C16.3995 51.5891 16.3995 51.8965 16.2098 52.0862L13.2727 55.0233C13.1778 55.1181 13.0536 55.1656 12.9293 55.1656Z" fill="#F7F7F7" stroke="#F7F7F7"/>
<path d="M42.2216 22.5159H21.093C20.8245 22.5159 20.6073 22.2984 20.6073 22.0301C20.6073 21.7619 20.8245 21.5444 21.093 21.5444H42.2216C42.4901 21.5444 42.7073 21.7619 42.7073 22.0301C42.7073 22.2984 42.4901 22.5159 42.2216 22.5159Z" fill="#F7F7F7" stroke="#F7F7F7"/>
<path d="M42.2216 26.4058H21.093C20.8245 26.4058 20.6073 26.1883 20.6073 25.92C20.6073 25.6518 20.8245 25.4343 21.093 25.4343H42.2216C42.4901 25.4343 42.7073 25.6518 42.7073 25.92C42.7073 26.1883 42.4901 26.4058 42.2216 26.4058Z" fill="#F7F7F7" stroke="#F7F7F7"/>
<path d="M42.2216 37.1348H21.093C20.8245 37.1348 20.6073 36.9173 20.6073 36.649C20.6073 36.3808 20.8245 36.1633 21.093 36.1633H42.2216C42.4901 36.1633 42.7073 36.3808 42.7073 36.649C42.7073 36.9173 42.4901 37.1348 42.2216 37.1348Z" fill="#F7F7F7" stroke="#F7F7F7"/>
<path d="M38.8216 41.0244H21.093C20.8245 41.0244 20.6073 40.8069 20.6073 40.5387C20.6073 40.2705 20.8245 40.053 21.093 40.053H38.8216C39.09 40.053 39.3073 40.2705 39.3073 40.5387C39.3073 40.8069 39.09 41.0244 38.8216 41.0244Z" fill="#F7F7F7" stroke="#F7F7F7"/>
<path d="M36.4333 51.7522H21.093C20.8245 51.7522 20.6073 51.5347 20.6073 51.2665C20.6073 50.9982 20.8245 50.7808 21.093 50.7808H36.4333C36.7018 50.7808 36.919 50.9982 36.919 51.2665C36.919 51.5347 36.7018 51.7522 36.4333 51.7522Z" fill="#F7F7F7" stroke="#F7F7F7"/>
<path d="M32.993 55.6418H21.093C20.8245 55.6418 20.6073 55.4244 20.6073 55.1561C20.6073 54.8879 20.8245 54.6704 21.093 54.6704H32.993C33.2615 54.6704 33.4787 54.8879 33.4787 55.1561C33.4787 55.4244 33.2615 55.6418 32.993 55.6418Z" fill="#F7F7F7" stroke="#F7F7F7"/>
<path d="M53.5618 62.6721H50.3454C50.0973 62.6721 49.8891 62.485 49.8625 62.2381L49.5675 59.4893C48.3869 59.2213 47.277 58.7629 46.2595 58.1226L44.1103 59.8555C43.9168 60.0111 43.6374 59.9966 43.4619 59.8209L41.187 57.5462C41.0115 57.3707 40.9964 57.0911 41.1524 56.8978L42.8856 54.7486C42.2453 53.7314 41.7871 52.6215 41.5191 51.4407L38.7699 51.1456C38.5232 51.1193 38.3358 50.9111 38.3358 50.6628V47.4461C38.3358 47.198 38.5227 46.9895 38.7699 46.9632L41.5191 46.6682C41.7871 45.4873 42.2453 44.3774 42.8856 43.3602L41.1524 41.2105C40.9964 41.0175 41.0115 40.7379 41.187 40.5624L43.4619 38.288C43.6374 38.112 43.9168 38.0975 44.1103 38.2533L46.2591 39.9861C47.277 39.3457 48.3869 38.8873 49.5675 38.6195L49.8625 35.8705C49.8891 35.6236 50.0973 35.4365 50.3454 35.4365H53.5618C53.8099 35.4365 54.0182 35.6236 54.0447 35.8705L54.3397 38.6195C55.5204 38.8873 56.6303 39.3457 57.6482 39.9861L59.7969 38.2533C59.9904 38.0978 60.2694 38.1122 60.4453 38.288L62.7202 40.5624C62.8957 40.7379 62.9109 41.0175 62.7548 41.2105L61.0216 43.3602C61.662 44.3774 62.1202 45.4873 62.3882 46.6682L65.1374 46.9632C65.3845 46.9895 65.5714 47.198 65.5714 47.4461V50.6628C65.5714 50.9111 65.3841 51.1193 65.1374 51.1456L62.3882 51.4407C62.1202 52.6215 61.662 53.7314 61.0216 54.7486L62.7548 56.8978C62.9109 57.0911 62.8957 57.3707 62.7202 57.5462L60.4453 59.8209C60.2694 59.9964 59.99 60.0109 59.7969 59.8555L57.6477 58.1226C56.6303 58.7629 55.5204 59.2213 54.3397 59.4893L54.0447 62.2381C54.0182 62.485 53.8099 62.6721 53.5618 62.6721ZM50.7818 61.7007H53.1255L53.4115 59.0347C53.4343 58.8224 53.5927 58.6498 53.8023 58.6095C55.1048 58.3588 56.3172 57.8579 57.4058 57.1208C57.5827 57.0017 57.8166 57.0107 57.9831 57.145L60.0673 58.8255L61.7246 57.168L60.044 55.0838C59.9098 54.9175 59.9003 54.6832 60.0199 54.5063C60.757 53.4186 61.2574 52.2065 61.5083 50.9035C61.5491 50.6938 61.7213 50.5352 61.9338 50.5124L64.6 50.2264V47.8825L61.9338 47.5962C61.7213 47.5735 61.5491 47.4148 61.5083 47.2051C61.2579 45.9024 60.757 44.6902 60.0199 43.6026C59.9003 43.4257 59.9098 43.1913 60.044 43.0253L61.7246 40.9407L60.0673 39.2833L57.9831 40.9637C57.8161 41.0979 57.5823 41.1071 57.4058 40.9878C56.3172 40.2507 55.1048 39.7498 53.8028 39.4994C53.5932 39.4591 53.4343 39.2867 53.4115 39.0742L53.1255 36.408H50.7818L50.4958 39.0742C50.473 39.2867 50.3141 39.4591 50.1045 39.4994C48.8019 39.7498 47.59 40.2507 46.5014 40.9881C46.3255 41.1076 46.0907 41.0986 45.9242 40.9639L43.84 39.2833L42.1827 40.9407L43.8632 43.0253C43.9975 43.1913 44.0069 43.4257 43.8874 43.6026C43.1503 44.6902 42.6494 45.9024 42.399 47.2051C42.3582 47.4148 42.186 47.5735 41.9735 47.5962L39.3073 47.8825V50.2264L41.9735 50.5124C42.186 50.5352 42.3582 50.6938 42.399 50.9035C42.6494 52.2062 43.1503 53.4184 43.8874 54.5063C44.0069 54.6832 43.9975 54.9175 43.8632 55.0838L42.1827 57.168L43.84 58.8255L45.9242 57.145C46.0902 57.0105 46.325 57.0012 46.5014 57.1208C47.59 57.8579 48.8024 58.3588 50.1049 58.6095C50.3146 58.6498 50.473 58.8224 50.4958 59.0347L50.7818 61.7007ZM65.0857 50.6628H65.0904H65.0857Z" fill="#F7F7F7" stroke="#F7F7F7"/>
<path d="M51.9534 55.9711C48.1398 55.9711 45.0372 52.8685 45.0372 49.0546C45.0372 45.241 48.1398 42.1384 51.9534 42.1384C55.7675 42.1384 58.8701 45.241 58.8701 49.0546C58.8701 52.8685 55.7675 55.9711 51.9534 55.9711ZM51.9534 43.1099C48.6753 43.1099 46.0086 45.7768 46.0086 49.0546C46.0086 52.3327 48.6753 54.9997 51.9534 54.9997C55.2315 54.9997 57.8987 52.3327 57.8987 49.0546C57.8987 45.7768 55.2315 43.1099 51.9534 43.1099Z" fill="#F7F7F7" stroke="#F7F7F7"/>
</svg>
