<svg width="12" height="9" viewBox="0 0 12 9" fill="none" xmlns="http://www.w3.org/2000/svg">
<path d="M5.664 5.808L4.314 2.31C4.274 2.206 4.232 2.086 4.188 1.95C4.144 1.81 4.102 1.662 4.062 1.506C3.978 1.83 3.892 2.1 3.804 2.316L2.454 5.808H5.664ZM8.088 9H7.188C7.084 9 7 8.974 6.936 8.922C6.872 8.87 6.824 8.804 6.792 8.724L5.988 6.648H2.13L1.326 8.724C1.302 8.796 1.256 8.86 1.188 8.916C1.12 8.972 1.036 9 0.936 9H0.036L3.474 0.401999H4.65L8.088 9ZM8.87109 4.95H11.8351V5.856H8.87109V4.95Z" fill="black"/>
</svg>
