<svg width="24" height="24" viewBox="0 0 24 24" fill="none" xmlns="http://www.w3.org/2000/svg">
<path d="M19 7.30215C18.5132 7.52669 17.9969 7.67408 17.4681 7.73941C18.0189 7.39574 18.4417 6.85152 18.6408 6.20309C18.1173 6.52655 17.5445 6.75446 16.9472 6.87695C16.4607 6.33728 15.7676 6 15.0004 6C13.5275 6 12.3332 7.24336 12.3332 8.77689C12.3332 8.99456 12.3568 9.20648 12.4023 9.40977C10.1857 9.29393 8.22046 8.18841 6.90497 6.50832C6.67544 6.91846 6.54392 7.39553 6.54392 7.90438C6.54392 8.86783 7.01481 9.71776 7.73042 10.2158C7.30688 10.202 6.89266 10.0829 6.52234 9.86839C6.52218 9.88003 6.52218 9.89166 6.52218 9.90334C6.52218 11.2488 7.44153 12.3712 8.6616 12.6263C8.26885 12.7375 7.85688 12.7538 7.45717 12.6739C7.79654 13.7771 8.78154 14.5799 9.9486 14.6024C9.0358 15.3472 7.88576 15.7912 6.63624 15.7912C6.42093 15.7912 6.20866 15.778 6 15.7524C7.18031 16.5403 8.58223 17 10.0884 17C14.9942 17 17.6768 12.7685 17.6768 9.09894C17.6768 8.97849 17.6743 8.85873 17.6691 8.73966C18.1913 8.34665 18.6419 7.85987 19 7.30215Z" fill="white"/>
</svg>
