<svg width="13" height="11" viewBox="0 0 13 11" fill="none" xmlns="http://www.w3.org/2000/svg">
<path d="M13 1.30215C12.5132 1.52669 11.9969 1.67408 11.4681 1.73941C12.0189 1.39574 12.4417 0.851518 12.6408 0.203085C12.1173 0.526554 11.5445 0.754458 10.9472 0.87695C10.4607 0.337276 9.76757 0 9.00042 0C7.52746 0 6.33323 1.24336 6.33323 2.77689C6.33323 2.99456 6.35685 3.20648 6.4023 3.40977C4.1857 3.29393 2.22046 2.18841 0.904973 0.50832C0.675441 0.918456 0.543918 1.39553 0.543918 1.90438C0.543918 2.86783 1.01481 3.71776 1.73042 4.21577C1.30688 4.20196 0.892658 4.08285 0.522336 3.86839C0.522184 3.88003 0.522184 3.89166 0.522184 3.90334C0.522184 5.2488 1.44153 6.37119 2.6616 6.6263C2.26885 6.73751 1.85688 6.75379 1.45717 6.67388C1.79654 7.77713 2.78154 8.57995 3.9486 8.60242C3.0358 9.34719 1.88576 9.79117 0.636238 9.79117C0.420926 9.79117 0.20866 9.778 0 9.75236C1.18031 10.5403 2.58223 11 4.0884 11C8.99422 11 11.6768 6.76853 11.6768 3.09894C11.6768 2.97849 11.6743 2.85873 11.6691 2.73966C12.1913 2.34665 12.6419 1.85987 13 1.30215Z" fill="white"/>
</svg>
