<svg width="85" height="69" viewBox="0 0 85 69" fill="none" xmlns="http://www.w3.org/2000/svg">
    <path d="M81.8544 54.0907V45.9531L74.469 31.9346C75.2212 31.114 75.6999 29.9515 75.6999 28.7206C75.6999 26.0537 73.58 23.9338 70.9131 23.9338C68.2462 23.9338 66.1263 26.0537 66.1263 28.7206C66.1263 31.3876 68.2462 33.5075 70.9131 33.5075C71.1183 33.5075 71.3234 33.5074 71.5286 33.4391L78.5036 46.7737V54.0907H6.35961V46.7737L13.3347 33.4391C13.5398 33.4391 13.745 33.5075 13.9501 33.5075C16.6171 33.5075 18.7369 31.3876 18.7369 28.7206C18.7369 26.0537 16.6171 23.9338 13.9501 23.9338C11.2832 23.9338 9.16332 26.0537 9.16332 28.7206C9.16332 29.9515 9.642 31.0457 10.3942 31.9346L3.07723 45.9531V54.0907H0V68.8614H5.47064H79.5294H85V54.0907H81.8544Z" fill="#F7F7F7" />
    <path d="M33.3706 18.8053C34.2596 23.2502 38.1574 26.4642 42.6707 26.4642C47.184 26.4642 51.1502 23.2502 51.9708 18.8053L53.4068 11.3516C54.2274 5.33387 49.5774 0 43.4913 0H42.6023H41.7134C35.6273 0 30.9772 5.33387 31.7978 11.3516L33.3706 18.8053Z" fill="#F7F7F7" />
    <path d="M17.9846 44.8588C17.9163 46.0213 17.8479 47.1155 17.8479 48.0044C17.7795 49.5772 17.7795 50.6714 17.7795 50.6714H42.2606H42.6709H67.152C67.152 50.6714 67.152 49.6456 67.0836 48.0044C67.0152 47.1155 67.0152 46.0213 66.9468 44.8588C66.8101 42.4654 66.5365 39.7985 66.1946 37.747C66.1946 37.6102 66.1262 37.4051 66.0579 37.2683C65.6476 35.9007 64.6902 34.6698 63.3909 34.0543C60.4505 32.6183 55.3217 30.7035 51.8342 29.4727C51.7658 29.6094 51.6974 29.7462 51.5607 29.9513C49.7827 34.1911 48.0048 38.3624 46.2268 42.6022C46.1584 42.7389 46.09 42.8757 46.09 43.0125C46.0217 43.0125 45.9533 43.0125 45.9533 43.0125L44.5856 32.0712C44.5856 31.7977 44.3121 31.5925 44.0385 31.5925H42.6025H42.1922H40.7562C40.4826 31.5925 40.2775 31.7977 40.2091 32.0712L38.8414 43.0125C38.8414 43.0125 38.7731 43.0125 38.7047 43.0125C38.6363 42.8757 38.5679 42.7389 38.5679 42.6022C36.79 38.3624 35.012 34.1911 33.234 29.9513C33.1657 29.7462 33.0973 29.6094 32.9605 29.4727C29.473 30.7035 24.3443 32.6183 21.4038 34.0543C20.1045 34.7381 19.1472 35.9007 18.7369 37.2683C18.6685 37.4051 18.6685 37.6102 18.6001 37.747C18.3266 39.7985 18.1214 42.4654 17.9846 44.8588Z" fill="#F7F7F7" />
</svg>
