<svg width="24" height="24" viewBox="0 0 24 24" fill="none" xmlns="http://www.w3.org/2000/svg">
<circle cx="12" cy="12" r="12" fill="none"/>
<path d="M14.4199 9.375C14.0234 6.9332 13.0883 5.21875 12 5.21875C10.9117 5.21875 9.97656 6.9332 9.58008 9.375H14.4199ZM9.375 12C9.375 12.607 9.40781 13.1895 9.46523 13.75H14.532C14.5895 13.1895 14.6223 12.607 14.6223 12C14.6223 11.393 14.5895 10.8105 14.532 10.25H9.46523C9.40781 10.8105 9.375 11.393 9.375 12ZM18.2535 9.375C17.4715 7.51836 15.8883 6.08281 13.9332 5.50312C14.6004 6.42734 15.0598 7.81914 15.3004 9.375H18.2535ZM10.0641 5.50312C8.11172 6.08281 6.52578 7.51836 5.74648 9.375H8.69961C8.9375 7.81914 9.39687 6.42734 10.0641 5.50312V5.50312ZM18.5461 10.25H15.4098C15.4672 10.8242 15.5 11.4121 15.5 12C15.5 12.5879 15.4672 13.1758 15.4098 13.75H18.5434C18.6937 13.1895 18.7785 12.607 18.7785 12C18.7785 11.393 18.6937 10.8105 18.5461 10.25ZM8.5 12C8.5 11.4121 8.53281 10.8242 8.59023 10.25H5.45391C5.30625 10.8105 5.21875 11.393 5.21875 12C5.21875 12.607 5.30625 13.1895 5.45391 13.75H8.5875C8.53281 13.1758 8.5 12.5879 8.5 12V12ZM9.58008 14.625C9.97656 17.0668 10.9117 18.7812 12 18.7812C13.0883 18.7812 14.0234 17.0668 14.4199 14.625H9.58008ZM13.9359 18.4969C15.8883 17.9172 17.4742 16.4816 18.2562 14.625H15.3031C15.0625 16.1809 14.6031 17.5727 13.9359 18.4969ZM5.74648 14.625C6.52852 16.4816 8.11172 17.9172 10.0668 18.4969C9.39961 17.5727 8.94023 16.1809 8.69961 14.625H5.74648V14.625Z" fill="white"/>
</svg>
