<svg width="18" height="18" viewBox="0 0 18 18" fill="none" xmlns="http://www.w3.org/2000/svg">
<g clip-path="url(#clip0_707_923)">
<path d="M9.00111 18C4.03821 18 0.000976562 13.9628 0.000976562 8.99987C0.000976563 4.03724 4.03821 0 9.00111 0C13.9637 0 18.0006 4.03724 18.0006 8.99987C18.0006 13.9628 13.9637 18 9.00111 18ZM9.00111 0.755858C4.45535 0.755858 0.756484 4.45411 0.756484 8.99987C0.756484 13.5456 4.45508 17.2439 9.00111 17.2439C13.5465 17.2439 17.2445 13.546 17.2445 8.99987C17.2445 4.45411 13.5466 0.755858 9.00111 0.755858Z" fill="#0067B3"/>
<path d="M17.4957 8.62207H0.503906V9.37793H17.4957V8.62207Z" fill="#0067B3"/>
<path d="M9.20411 5.44761C4.93769 5.44761 1.75428 4.5088 1.55615 4.44881L1.77489 3.72496C1.84646 3.74662 9.02448 5.8594 16.1922 3.72461L16.4072 4.44907C13.8933 5.19809 11.4038 5.44761 9.20411 5.44761Z" fill="#0067B3"/>
<path d="M1.79062 14.0833L1.57495 13.3588C8.9661 11.1591 16.1253 13.2688 16.4266 13.3588L16.2079 14.083C16.136 14.061 8.95856 11.9492 1.79062 14.0833Z" fill="#0067B3"/>
<path d="M6.08671 17.2053C2.36215 8.4854 5.5767 0.754653 5.60959 0.677734L6.30484 0.974008C6.27283 1.04812 3.18826 8.4954 6.78197 16.9083L6.08671 17.2053Z" fill="#0067B3"/>
<path d="M11.8552 17.2054L11.1599 16.9088C14.7534 8.49598 11.6687 1.04861 11.6367 0.974497L12.3319 0.678223C12.3643 0.754791 15.5791 8.48554 11.8552 17.2054Z" fill="#0067B3"/>
<path d="M9.37758 0.503906H8.62207V17.8087H9.37758V0.503906Z" fill="#0067B3"/>
</g>
<defs>
<clipPath id="clip0_707_923">
<rect width="18" height="18" fill="white"/>
</clipPath>
</defs>
</svg>
