<svg width="32" height="28" viewBox="0 0 32 28" fill="none" xmlns="http://www.w3.org/2000/svg">
    <path d="M17.011 17.6921C16.2101 17.6921 15.5615 18.341 15.5615 19.1415V21.9497C15.5615 22.7506 16.2101 23.3995 17.011 23.3995H20.1634V26.5523C20.1634 27.3524 20.8123 28.0009 21.6128 28.0009H24.421C25.2219 28.0009 25.8708 27.3524 25.8708 26.5523V23.3995H29.0232C29.8233 23.3995 30.4726 22.7506 30.4726 21.9497V19.1415C30.4726 18.341 29.8233 17.6921 29.0232 17.6921H25.8708V14.5396C25.8708 13.7391 25.2219 13.0898 24.421 13.0898H21.6128C20.8123 13.0898 20.1634 13.7391 20.1634 14.5396V17.6921H17.011Z" fill="#F7F7F7" />
    <path d="M19.1025 24.4581H17.0109C15.6269 24.4581 14.5006 23.3322 14.5006 21.9478V19.1396C14.5006 17.7549 15.6269 16.629 17.0109 16.629H19.1025V14.5378C19.1025 13.1534 20.2284 12.0275 21.6127 12.0275H24.4209C25.8053 12.0275 26.9316 13.1534 26.9316 14.5378V16.629H27.0779L28.92 14.7864C32.3027 11.4046 32.3027 5.92021 28.92 2.53683C25.5367 -0.845797 20.0527 -0.845421 16.6704 2.53683L15.7285 3.47879L14.7865 2.53683C11.4043 -0.845421 5.9203 -0.845797 2.53767 2.53683C-0.845703 5.91983 -0.845703 11.4042 2.53655 14.7864L15.7285 27.9784L19.1025 24.6044V24.4581Z" fill="#F7F7F7" />
</svg>
    